<svg xmlns="http://www.w3.org/2000/svg" width="637" height="603" viewBox="0 0 637 603">
  <g id="Group_97" data-name="Group 97" transform="translate(-974 -986)">
    <g id="Group_96" data-name="Group 96">
      <g id="Lag_1" transform="translate(974 986)">
        <rect id="Rectangle_28" data-name="Rectangle 28" width="637" height="603" transform="translate(0 0)" fill="#cae7ed"/>
        <rect id="Rectangle_29" data-name="Rectangle 29" width="588.539" height="559.173" transform="translate(24.335 18.891)" fill="none" stroke="#fff" stroke-miterlimit="10" stroke-width="10.895"/>
      </g>
      <path id="Path_1381" data-name="Path 1381" d="M450.059,103.462c1.066-11.5-14.475-19.813-17.481-8.614-2.8,10.534-17.131,25.8-20.312,28.714-4.422,4.05-77.321,60.391-100.163,42.134-22.842-18.271-13-65.6,22-105.714a2.805,2.805,0,0,1,.207-.242c12.677-14.478,7.762-21.747-11.182-16.488-21.521,5.97-19.851,18.286-39.575,40.91-6.649,7.632-13.123,15.521-17.259,25.148a12.659,12.659,0,0,0-.143,3.174c.016,1.647,4.438,40.26,1.909,66.557-2.481,25.949-2.959,47.076-10.18,63.912A9.842,9.842,0,0,0,263.6,255.89c43.281,16.473,66.9-26.689,103.058-68.174,18.356-21.037,79.755-45.006,83.366-84.254h.016Z" transform="translate(1054.42 995.566)" fill="#9ed3cd"/>
      <path id="Path_1382" data-name="Path 1382" d="M305.741,98.952c-3.293,19.223,5.345,36.573,19.279,38.764,13.95,2.206,38.923-1.768,42.232-20.977,3.293-19.223,3.34-43.313-10.61-45.5s-47.608,8.508-50.9,27.717h0Z" transform="translate(1069.466 1002.873)" fill="#9ed3cd"/>
      <path id="Path_1383" data-name="Path 1383" d="M302.884,177.189s13.584,1.511,19.438-.574l1.3-.469a8.548,8.548,0,0,0,4.04-3.688,8.077,8.077,0,0,0-1.082-9.264,8.9,8.9,0,0,0-9.162-2.539,8.209,8.209,0,0,0-4.183-8.206,8.859,8.859,0,0,0-9.719.544,8.1,8.1,0,0,0-3.1,4.443l-.255,1.3c-1.145,5.864,2.72,18.453,2.72,18.453h.016Z" transform="translate(1067.869 1022.823)" fill="#00a79d"/>
      <path id="Path_1384" data-name="Path 1384" d="M298.995,17.941c-6.888-9.491-24.385-6.317-19.183,4.111,4.883,9.808,4.12,30.316,3.643,34.487-.684,5.818-18.929,93.835-48.69,93.835S180.889,108,180.889,55.707v-.3c.048-18.891-8.589-21.46-19.629-5.8-12.518,17.8-2.99,26.221-2.99,55.691,0,9.944.318,19.949,3.579,29.893a13.149,13.149,0,0,0,2.02,2.524c1.113,1.239,30.365,28.185,46.017,49.9,15.461,21.445,29.236,37.948,34.947,55.328a10.517,10.517,0,0,0,13.027,6.408c44.252-13.934,33.483-61.569,33.483-115.583,0-27.415,31.113-83.483,7.619-115.855h.048Z" transform="translate(1022.289 988.296)" fill="#9ed3cd"/>
      <path id="Path_1385" data-name="Path 1385" d="M191.157,97.383c10.339,16.775,28.568,24.8,40.736,17.924s28.7-25.253,18.372-42.029S223.844,37.99,211.676,44.851c-12.168,6.876-30.843,35.757-20.519,52.532h0Z" transform="translate(1032.764 996.023)" fill="#9ed3cd"/>
      <path id="Path_1386" data-name="Path 1386" d="M241.647,154.288s11.437-7.194,14.538-12.362l.684-1.164a8.017,8.017,0,0,0,.636-5.32A8.541,8.541,0,0,0,250.475,129a8.833,8.833,0,0,0-8.733,3.672,8.856,8.856,0,0,0-8.7-3.748,8.381,8.381,0,0,0-7.094,6.378,7.928,7.928,0,0,0,.589,5.32l.684,1.164c3.038,5.214,14.411,12.483,14.411,12.483h.016Z" transform="translate(1044.563 1017.252)" fill="#00a79d"/>
      <path id="Path_1387" data-name="Path 1387" d="M456.791,428.011c12.057-.363,18.817-16.14,6.84-17.637-11.246-1.405-28.791-13.209-32.195-15.884-4.74-3.7-71.85-66.315-55.641-90.208,16.209-23.908,66.457-20.176,112.236,8.312.08.06.175.106.27.166,16.527,10.322,23.478,4.791,15.747-12.589-8.764-19.737-21.331-16.7-47.131-32.749-8.717-5.41-17.64-10.609-28.123-13.42a14.833,14.833,0,0,0-3.324.242c-1.7.227-41.2,9.022-68.78,9.778-27.2.741-49.151,2.811-67.491-2.055a10.47,10.47,0,0,0-12.709,6.982c-11.914,43.132,35.678,60.436,82.968,89.861,24,14.931,56.166,70.456,97.316,69.217h0Z" transform="translate(1059.92 1048.338)" fill="#9ed3cd"/>
      <path id="Path_1388" data-name="Path 1388" d="M408.392,295.2c-20.312-.831-37.269,9.445-37.889,22.971s6.49,36.815,26.786,37.646c20.313.831,45.3-1.995,45.906-15.521.62-13.526-14.507-44.265-34.8-45.1Z" transform="translate(1090.011 1058.573)" fill="#9ed3cd"/>
      <path id="Path_1389" data-name="Path 1389" d="M321.443,302.124s.048,13.088,2.9,18.407l.636,1.179a8.545,8.545,0,0,0,4.311,3.4,9,9,0,0,0,9.464-2.131,8.1,8.1,0,0,0,1.559-9.022,8.775,8.775,0,0,0,8.017-4.942,7.887,7.887,0,0,0-1.718-9.158,8.732,8.732,0,0,0-4.979-2.418l-1.384-.106c-6.235-.393-18.8,4.791-18.8,4.791h0Z" transform="translate(1074.617 1059.111)" fill="#00a79d"/>
      <path id="Path_1390" data-name="Path 1390" d="M528.565,271.1c9.019-7.677,3.643-23.923-6.553-17.742-9.592,5.818-30.938,7.541-35.344,7.571-6.124.06-99.527-6.8-103.074-35.077s37.507-56.28,91.7-62.537a1.157,1.157,0,0,0,.318-.045c19.581-2.222,21.219-10.73,3.674-19.344-19.947-9.778-27.55.287-58.09,3.808-10.307,1.179-20.647,2.69-30.572,6.967a13.566,13.566,0,0,0-2.386,2.222c-1.177,1.194-25.594,32.236-46.24,49.706-20.392,17.244-35.853,32.341-53.175,39.852a9.813,9.813,0,0,0-5.106,13.148c19.724,40.4,67.825,24.5,123.832,18.045,28.425-3.279,90.269,19.6,121.016-6.6h-.016Z" transform="translate(1062.477 1019.969)" fill="#9ed3cd"/>
      <path id="Path_1391" data-name="Path 1391" d="M396.413,180.017c-16.161,11.833-22.285,30.12-13.711,40.88,8.59,10.745,29.6,24.271,45.747,12.468,16.161-11.8,33.451-29.349,24.862-40.094s-40.752-25.072-56.9-13.254h0Z" transform="translate(1092.636 1028.866)" fill="#9ed3cd"/>
      <path id="Path_1392" data-name="Path 1392" d="M336.247,237.48s8.8,10.02,14.539,12.362l1.272.514a9.194,9.194,0,0,0,5.6-.015,8.189,8.189,0,0,0,.97-15.324,8.1,8.1,0,0,0,2.831-8.72,8.446,8.446,0,0,0-7.46-5.985,8.926,8.926,0,0,0-5.44,1.194l-1.129.771c-5.042,3.521-11.23,15.2-11.23,15.2h.048Z" transform="translate(1079.251 1039.97)" fill="#00a79d"/>
      <path id="Path_1393" data-name="Path 1393" d="M74.139,415.917C71.912,427.282,86.53,437,90.634,426.119c3.865-10.216,19.692-24.075,23.128-26.674,4.8-3.627,83.111-52.865,104-32.538,20.853,20.327,6.235,66.5-32.7,103.16l-.239.227c-14.077,13.209-9.957,20.916,9.433,17.455,22.03-3.929,21.617-16.352,43.568-37.011,7.4-6.982,14.634-14.206,19.756-23.395a12.415,12.415,0,0,0,.461-3.159c.143-1.632-.3-40.487,4.883-66.421,5.122-25.6,7.746-46.562,16.67-62.658a9.777,9.777,0,0,0-4.358-13.405C233.84,261.253,205.924,302,165.7,339.87c-20.408,19.223-83.954,37.3-91.573,76.047h0Z" transform="translate(996.889 1053.873)" fill="#9ed3cd"/>
      <path id="Path_1394" data-name="Path 1394" d="M187.415,403.93c5.249-18.815-1.575-36.89-15.222-40.381s-38.923-1.889-44.156,16.926c-5.249,18.815-7.762,42.784,5.917,46.29,13.664,3.506,48.26-4,53.493-22.82h-.016Z" transform="translate(1012.567 1075.2)" fill="#9ed3cd"/>
      <path id="Path_1395" data-name="Path 1395" d="M189.559,318s-13.377-2.8-19.39-1.269l-1.336.348a8.613,8.613,0,0,0-4.406,3.295,8.035,8.035,0,0,0,.143,9.325,8.888,8.888,0,0,0,8.844,3.4,8.168,8.168,0,0,0,3.324,8.569,8.792,8.792,0,0,0,9.719.363A8.282,8.282,0,0,0,190,337.886l.4-1.285c1.75-5.743-.827-18.6-.827-18.6h-.016Z" transform="translate(1024.866 1063.821)" fill="#00a79d"/>
      <path id="Path_1396" data-name="Path 1396" d="M259.961,515.4c8.574,8.146,25.18,2.01,18.086-7.345-6.649-8.8-9.735-29.122-10.053-33.309-.429-5.849,1-95.558,30.254-100.666S359.2,406.5,369.031,457.91a2.046,2.046,0,0,0,.064.3c3.515,18.589,12.487,19.632,20.392,2.327,8.971-19.647-1.972-26.311-7.524-55.3-1.877-9.778-4.056-19.571-9.114-28.79a12.8,12.8,0,0,0-2.465-2.131c-1.336-1.043-35.137-22.473-54.639-41.167-19.215-18.422-35.885-32.3-44.777-48.376a10.63,10.63,0,0,0-14.029-4.065c-40.911,21.324-21.394,66.345-11.23,119.467,5.138,26.961-14.9,87.5,14.284,115.265h-.016Z" transform="translate(1046.546 1054.695)" fill="#9ed3cd"/>
      <path id="Path_1397" data-name="Path 1397" d="M327.906,389.326c-13.314-14.72-32.767-19.465-43.441-10.609s-23.494,29.787-10.18,44.507,32.608,30.18,43.313,21.294c10.673-8.856,23.637-40.487,10.339-55.207h-.016Z" transform="translate(1058.022 1078.228)" fill="#9ed3cd"/>
      <path id="Path_1398" data-name="Path 1398" d="M258.971,333.379s-9.91,9.038-11.993,14.659l-.445,1.269a8,8,0,0,0,.382,5.335,8.834,8.834,0,0,0,16.034.03,8.949,8.949,0,0,0,9.273,2.176,8.229,8.229,0,0,0,5.79-7.5,8,8,0,0,0-1.575-5.138l-.891-1.043c-3.977-4.609-16.543-9.793-16.543-9.793h-.016Z" transform="translate(1051.003 1068.072)" fill="#00a79d"/>
      <path id="Path_1399" data-name="Path 1399" d="M121.766,65.541c-11.819-2.327-22.19,11.546-10.912,15.657,10.61,3.854,24.83,19.223,27.486,22.563,3.722,4.67,53.923,80.415,32.386,100.077-21.537,19.677-69.527,4.942-107.194-32.885-.064-.076-.143-.136-.207-.227-13.584-13.677-21.681-9.854-18.372,8.78,3.77,21.143,16.734,20.946,37.969,42.27,7.158,7.194,14.6,14.236,24.13,19.284a12.688,12.688,0,0,0,3.293.484c1.7.166,42.263.333,69.273,5.7,26.643,5.289,48.5,8.131,65.169,16.926a10.671,10.671,0,0,0,14.061-3.975c21.983-39.323-20.138-66.693-59.061-105.774-19.756-19.828-37.682-80.974-77.989-88.863h-.016Z" transform="translate(987.564 1001.463)" fill="#9ed3cd"/>
      <path id="Path_1400" data-name="Path 1400" d="M100.049,176.411c19.565,5.32,38.541-.937,42.391-13.964s2.577-37.238-16.988-42.558-44.57-8.085-48.419,4.942c-3.849,13.012,3.452,46.26,23,51.58h0Z" transform="translate(997.558 1013.929)" fill="#9ed3cd"/>
      <path id="Path_1401" data-name="Path 1401" d="M177.735,181.64s3.1-12.77,1.622-18.543l-.334-1.3a8.493,8.493,0,0,0-3.356-4.277,9.009,9.009,0,0,0-9.735,0,8.162,8.162,0,0,0-3.674,8.433,8.849,8.849,0,0,0-8.987,3.053,7.884,7.884,0,0,0-.525,9.309,8.543,8.543,0,0,0,4.247,3.461l1.336.408c5.949,1.753,19.438-.514,19.438-.514h0Z" transform="translate(1021.244 1024.025)" fill="#00a79d"/>
      <path id="Path_1402" data-name="Path 1402" d="M27.693,208.019c-10.61,5.516-9.242,22.5,2.147,18.694,10.721-3.582,31.908-.574,36.2.348,5.981,1.285,95.28,28.382,91.971,56.7-3.293,28.321-49.946,46.593-104.187,40.82a1.154,1.154,0,0,1-.318-.045c-19.6-2.116-23.223,5.8-8.192,18.014,17.068,13.889,26.9,5.743,57.47,9.007,10.307,1.1,20.726,1.919,31.431-.106a13.477,13.477,0,0,0,2.847-1.647c1.432-.922,32.592-25.782,56.882-38.281,23.955-12.332,42.613-23.636,61.272-27.158a10.005,10.005,0,0,0,8.1-11.712C253.756,229,203.126,233.968,147.055,228c-28.441-3.038-83.223-38.825-119.378-20.04V208Z" transform="translate(980.106 1035.563)" fill="#9ed3cd"/>
      <g id="Group_90" data-name="Group 90" transform="translate(1034.28 1278.027)">
        <path id="Path_1403" data-name="Path 1403" d="M99.345,301.005c18.547-7.98,28.9-24.453,23.1-36.8-5.79-12.332-23.033-30.12-41.58-22.14s-39.543,21.233-33.769,33.6c5.79,12.362,33.706,33.309,52.237,25.344h.016Z" transform="translate(-46.118 -233.136)" fill="#c8d9db"/>
        <path id="Path_1404" data-name="Path 1404" d="M160.076,251.728s-6.188-11.682-11.23-15.2l-1.129-.771a9.032,9.032,0,0,0-5.44-1.194,8.648,8.648,0,0,0-7.46,5.985,8.1,8.1,0,0,0,2.831,8.72,8.339,8.339,0,0,0-4.851,7.874,8.182,8.182,0,0,0,5.822,7.451,8.973,8.973,0,0,0,5.6.015l1.273-.514c5.742-2.327,14.539-12.362,14.539-12.362h.048Z" transform="translate(-18.902 -234.518)" fill="#00a79d"/>
      </g>
      <rect id="Rectangle_30" data-name="Rectangle 30" width="634.668" height="152.639" transform="translate(974 1227.489)" fill="#f7882c" opacity="0.9"/>
      <g id="Group_91" data-name="Group 91" transform="translate(1081.971 1244.398)">
        <path id="Path_1405" data-name="Path 1405" d="M92.736,209V316.253H82.413V209Z" transform="translate(-82.413 -207.229)"/>
        <path id="Path_1406" data-name="Path 1406" d="M104,316.253V209h11.278l25.625,54.27a346.248,346.248,0,0,1,14.363,34.85l.239-.166c-.954-14.327-1.193-27.369-1.193-44.084V209h9.735V316.253H153.609l-25.387-54.421a387.415,387.415,0,0,1-14.952-35.8l-.35.166c.589,13.526.827,26.417.827,44.235v45.837h-9.735Z" transform="translate(-75.635 -207.229)"/>
        <path id="Path_1407" data-name="Path 1407" d="M163.421,210.577a111.372,111.372,0,0,1,21.951-2.222c14.841,0,25.387,4.609,32.4,13.375,7.11,8.75,11.278,21.158,11.278,38.507s-4.04,31.828-11.516,41.7c-7.476,10.02-19.819,15.43-35.36,15.43a126.377,126.377,0,0,1-18.754-1.27v-105.5Zm10.323,94.848a48.927,48.927,0,0,0,10.435.8c22.078,0,34.056-16.549,34.056-45.52.127-25.3-10.562-41.379-32.4-41.379a44.075,44.075,0,0,0-12.1,1.436v84.662Z" transform="translate(-56.975 -207.389)"/>
        <path id="Path_1408" data-name="Path 1408" d="M233.9,209v44.87H272.58V209h10.435V316.253H272.58v-50.28H233.9v50.28H223.572V209Z" transform="translate(-38.087 -207.229)"/>
        <path id="Path_1409" data-name="Path 1409" d="M351.935,261.851c0,36.921-16.734,56.492-37.142,56.492s-35.949-21.959-35.949-54.421c0-34.064,15.779-56.34,37.142-56.34s35.965,22.442,35.965,54.27ZM289.868,263.6c0,22.911,9.258,43.449,25.514,43.449s25.641-20.206,25.641-44.552c0-21.324-8.3-43.6-25.514-43.6s-25.641,21.158-25.641,44.719Z" transform="translate(-20.731 -207.581)"/>
        <path id="Path_1410" data-name="Path 1410" d="M344.673,209H355v95.649h34.167v11.622h-44.49V209.013Z" transform="translate(-0.06 -207.229)"/>
        <path id="Path_1411" data-name="Path 1411" d="M387.308,210.577a111.372,111.372,0,0,1,21.951-2.222c14.825,0,25.387,4.609,32.4,13.375,7.126,8.75,11.278,21.158,11.278,38.507s-4.04,31.828-11.516,41.7c-7.476,10.02-19.819,15.43-35.36,15.43a126.376,126.376,0,0,1-18.754-1.27v-105.5Zm10.323,94.848a48.928,48.928,0,0,0,10.435.8c22.078,0,34.056-16.549,34.056-45.52.111-25.3-10.562-41.379-32.4-41.379a44.074,44.074,0,0,0-12.1,1.436v84.662Z" transform="translate(13.328 -207.389)"/>
      </g>
    </g>
  </g>
</svg>
