<?xml version="1.0" encoding="UTF-8"?><svg xmlns="http://www.w3.org/2000/svg" width="400" height="400" viewBox="0 0 400 400"><defs><style>.cls-1{fill:#fff;}.cls-2,.cls-3,.cls-4,.cls-5,.cls-6,.cls-7{stroke-miterlimit:10;}.cls-2,.cls-3,.cls-4,.cls-5,.cls-7{stroke:#000;}.cls-2,.cls-4,.cls-5,.cls-7{stroke-width:7px;}.cls-2,.cls-8{fill:#b3b3b3;}.cls-9,.cls-3{fill:#4d4d4d;}.cls-10{opacity:.8;}.cls-11{fill:#cae7ed;}.cls-3{stroke-width:3px;}.cls-12{fill:#d4fff9;}.cls-4{fill:#f2f2f2;}.cls-5,.cls-6{fill:none;}.cls-13{fill:#f7882c;isolation:isolate;opacity:.9;}.cls-6{stroke:#fff;stroke-width:9px;}.cls-7{fill:#999;}</style></defs><g id="Lag_1"><path class="cls-12" d="m19.67,126.07c1.93,0,1.93-3,0-3s-1.93,3,0,3h0Z"/><rect class="cls-11" x="1" width="399" height="399"/><rect class="cls-6" x="14.5" y="18.5" width="370" height="370"/></g><g id="Lag_2"><g><ellipse class="cls-4" cx="329.37" cy="140.91" rx="61.36" ry="96.54" transform="translate(-25.9 94.81) rotate(-15.77)"/><ellipse class="cls-2" cx="299.91" cy="148.46" rx="76.85" ry="124.37" transform="translate(-29.24 88.08) rotate(-15.94)"/><ellipse class="cls-7" cx="287.84" cy="152.99" rx="72.9" ry="119.03" transform="translate(-31.01 85.22) rotate(-15.99)"/><ellipse class="cls-7" cx="109.04" cy="229.37" rx="81.24" ry="132.8" transform="translate(-58.99 38.93) rotate(-16)"/><ellipse class="cls-4" cx="94.03" cy="240.7" rx="63.36" ry="117.83" transform="translate(-64.67 36.76) rotate(-16.55)"/><ellipse class="cls-7" cx="68.55" cy="253.68" rx="59.87" ry="95.47" transform="translate(-66.69 28.37) rotate(-15.85)"/><ellipse class="cls-4" cx="57.5" cy="264.65" rx="46.03" ry="84.78" transform="translate(-72.87 27.27) rotate(-16.52)"/><line class="cls-5" x1="177.3" y1="175.87" x2="264.84" y2="140.71"/><line class="cls-5" x1="190.73" y1="215.54" x2="278.28" y2="180.37"/><ellipse class="cls-3" cx="269.94" cy="161.54" rx="14.35" ry="23.47" transform="translate(-34.07 80.66) rotate(-16)"/><polygon class="cls-9" points="275.81 178.7 191.51 212.56 179.13 176.28 263.43 142.42 275.81 178.7"/><path class="cls-8" d="m206.7,197.2c17.34-6.3,34.63-12.75,51.87-19.34,4.87-1.86,9.74-3.74,14.6-5.62,2.19-.85,3.94-3.06,3.14-5.54-.69-2.13-3.19-4.05-5.54-3.14-17.21,6.67-34.47,13.2-51.79,19.59-4.89,1.8-9.78,3.59-14.68,5.37-2.21.8-3.93,3.09-3.14,5.54.7,2.17,3.17,4,5.54,3.14h0Z"/></g><g><path d="m39.04,250.51l-7.79,3.13,2.33,8.06c.43-.28.84-.55,1.59-.85,1.57-.63,3.34-.75,5.05-.14,2.14.7,4.51,2.77,6.03,6.58,2.37,5.89.96,11.58-3.46,13.35-2.23.9-4.49.72-5.83.19l-.56-3.39c1.15.4,3.18.66,5.04-.08,2.61-1.05,3.83-4.45,2.21-8.49-1.6-3.89-4.47-5.96-8.56-4.32-1.16.47-2,1.02-2.7,1.46l-4.5-15.01,9.77-3.92,1.38,3.43Z"/><path d="m42.11,243.99l2.73-1.1,6.06,15.08.09-.04c.08-1.43.2-2.77.32-4.01l1.75-14.34,3.39-1.36-2.33,16.35,15.49,14.69-3.23,1.3-13.14-12.56-.63,4.24,4.79,11.92-2.73,1.1-12.56-31.27Z"/><path d="m86.71,260.78c-.96,1.14-2.96,3.18-5.81,4.33-3.2,1.29-6.33,1.14-9.57-.95-2.87-1.87-5.67-5.59-7.63-10.46-3.71-9.34-2.12-17.9,4.98-20.75,2.45-.98,4.68-.96,5.85-.68l.67,3.56c-1.43-.29-3.09-.32-5.22.53-5.15,2.07-6.61,8.15-3.46,15.99,3.19,7.93,8.3,11.32,13.24,9.34,1.79-.72,2.87-1.58,3.31-2.3l-3.75-9.33-4.3,1.73-1.3-3.25,6.97-2.8,6.04,15.03Z"/></g><rect class="cls-13" x="1" y="162" width="399" height="101"/><g><path d="m160.35,181.15v42.02c0,15.9,5,22.64,11.71,22.64,7.46,0,12.23-6.95,12.23-22.64v-42.02h6.57v41.38c0,21.8-8.13,30.75-19.02,30.75-10.29,0-18.05-8.32-18.05-30.33v-41.8h6.56Z"/><path d="m229.65,252.12l-6.42-15.69c-2.61-6-4.25-9.9-5.82-14h-.15c-1.42,4.11-2.83,7.9-5.45,14.11l-6.04,15.58h-7.46l15.37-35.91-14.77-35.06h7.53l6.64,16.64c1.87,4.63,3.28,8.21,4.62,12h.22c1.42-4.21,2.69-7.48,4.55-12l6.86-16.64h7.46l-15.29,34.54,15.67,36.43h-7.53Z"/></g><g class="cls-10"><path class="cls-1" d="m94.2,114.89c17.99,5.73,33.69,17.73,43.93,33.39,1.94,2.97,3.7,6.06,5.28,9.23.72,1.45,2.77,1.85,4.1,1.08,1.48-.86,1.8-2.65,1.08-4.1-8.23-16.58-21.56-30.55-37.97-39.19-4.74-2.5-9.72-4.56-14.82-6.19-1.54-.49-3.27.58-3.69,2.1-.44,1.62.55,3.2,2.1,3.69h0Z"/></g><g class="cls-10"><path class="cls-1" d="m307.48,44.12c.51-.22,1.43.61,1.79.9.77.62,1.5,1.27,2.25,1.91,1.34,1.14,2.68,2.29,4.01,3.45,2.72,2.37,5.41,4.77,8.02,7.25,5.19,4.93,10.13,10.17,14.32,15.98,2.37,3.29,4.49,6.74,6.3,10.37.87,1.73,3.45.21,2.59-1.51-7.07-14.09-18.61-25.15-30.4-35.32-1.65-1.43-3.3-2.87-4.98-4.25s-3.35-2.26-5.42-1.37c-1.77.76-.24,3.35,1.51,2.59h0Z"/></g><g class="cls-10"><path class="cls-1" d="m179.51,274.51c.3,7.99-.49,15.93-2.41,23.7-.92,3.75,4.86,5.35,5.79,1.6,2.04-8.26,2.94-16.79,2.62-25.29-.06-1.62-1.34-3-3-3-1.58,0-3.06,1.37-3,3h0Z"/></g></g></svg>