<?xml version="1.0" encoding="UTF-8"?><svg xmlns="http://www.w3.org/2000/svg" width="400" height="400" viewBox="0 0 400 400"><defs><style>.cls-1{fill:#cae7ed;}.cls-2{fill:#00a79d;}.cls-3{fill:#f7882c;isolation:isolate;opacity:.9;}.cls-4{fill:none;stroke:#fff;stroke-miterlimit:10;stroke-width:9px;}.cls-5{fill:#9ed3cd;}.cls-6{fill:#c8d9db;}</style></defs><g id="Lag_1"><rect class="cls-1" x="1" y=".5" width="399" height="399"/><rect class="cls-4" x="15.5" y="13" width="370" height="370"/></g><g id="Lag_2"><path class="cls-5" d="m333.7,75.29c.67-7.61-9.1-13.11-10.99-5.7-1.76,6.97-10.77,17.07-12.77,19-2.78,2.68-48.61,39.96-62.97,27.88-14.36-12.09-8.17-43.41,13.83-69.95.04-.05.08-.11.13-.16,7.97-9.58,4.88-14.39-7.03-10.91-13.53,3.95-12.48,12.1-24.88,27.07-4.18,5.05-8.25,10.27-10.85,16.64-.17.4-.09,1.75-.09,2.1.01,1.09,2.79,26.64,1.2,44.04-1.56,17.17-1.86,31.15-6.4,42.29-1.35,3.31.29,7.24,3.6,8.56,27.21,10.9,42.06-17.66,64.79-45.11,11.54-13.92,50.14-29.78,52.41-55.75h.01Z"/><path class="cls-5" d="m252.43,77.14c-2.07,12.72,3.36,24.2,12.12,25.65,8.77,1.46,24.47-1.17,26.55-13.88,2.07-12.72,2.1-28.66-6.67-30.11s-29.93,5.63-32,18.34h0Z"/><path class="cls-2" d="m249.63,142.11s8.54,1,12.22-.38l.82-.31c1.03-.49,1.94-1.29,2.54-2.44,1.03-1.97.76-4.45-.68-6.13-1.51-1.77-3.78-2.29-5.76-1.68.25-2.06-.64-4.23-2.63-5.43s-4.36-1-6.11.36c-1.03.79-1.66,1.83-1.95,2.94l-.16.86c-.72,3.88,1.71,12.21,1.71,12.21h.01Z"/><path class="cls-5" d="m218.53,13.89c-4.33-6.28-15.33-4.18-12.06,2.72,3.07,6.49,2.59,20.06,2.29,22.82-.43,3.85-11.9,62.09-30.61,62.09s-33.87-28.04-33.87-62.64v-.2c.03-12.5-5.4-14.2-12.34-3.84-7.87,11.78-1.88,17.35-1.88,36.85,0,6.58.2,13.2,2.25,19.78.13.42,1.04,1.4,1.27,1.67.7.82,19.09,18.65,28.93,33.02,9.72,14.19,18.38,25.11,21.97,36.61,1.07,3.41,4.83,5.36,8.19,4.24,27.82-9.22,21.05-40.74,21.05-76.48,0-18.14,19.56-55.24,4.79-76.66h.03Z"/><path class="cls-5" d="m157.32,71.57c6.5,11.1,17.96,16.41,25.61,11.86s18.04-16.71,11.55-27.81-16.61-23.35-24.26-18.81c-7.65,4.55-19.39,23.66-12.9,34.76h0Z"/><path class="cls-2" d="m196.48,123.27s7.19-4.76,9.14-8.18l.43-.77c.48-1.04.67-2.24.4-3.52-.45-2.17-2.25-3.91-4.42-4.26-2.29-.38-4.36.69-5.49,2.43-1.11-1.75-3.18-2.83-5.47-2.48s-3.98,2.05-4.46,4.22c-.28,1.27-.11,2.48.37,3.52l.43.77c1.91,3.45,9.06,8.26,9.06,8.26h.01,0Z"/><path class="cls-5" d="m341.39,324.96c7.58-.24,11.83-10.68,4.3-11.67-7.07-.93-18.1-8.74-20.24-10.51-2.98-2.45-45.17-43.88-34.98-59.69,10.19-15.82,41.78-13.35,70.56,5.5.05.04.11.07.17.11,10.39,6.83,14.76,3.17,9.9-8.33-5.51-13.06-13.41-11.05-29.63-21.67-5.48-3.58-11.09-7.02-17.68-8.88-.43-.12-1.74.12-2.09.16-1.07.15-25.9,5.97-43.24,6.47-17.1.49-30.9,1.86-42.43-1.36-3.42-.96-7.08,1.16-7.99,4.62-7.49,28.54,22.43,39.99,52.16,59.46,15.09,9.88,35.31,46.62,61.18,45.8h0Z"/><path class="cls-5" d="m329.88,243.85c-12.77-.55-23.43,6.25-23.82,15.2-.39,8.95,4.08,24.36,16.84,24.91,12.77.55,28.48-1.32,28.86-10.27.39-8.95-9.12-29.29-21.88-29.84Z"/><path class="cls-2" d="m265.54,248.79s.03,8.66,1.82,12.18l.4.78c.6.97,1.5,1.79,2.71,2.25,2.06.79,4.46.23,5.95-1.41,1.56-1.72,1.8-4.06.98-5.97,2.06,0,4.09-1.15,5.04-3.27s.47-4.49-1.08-6.06c-.91-.93-2-1.44-3.13-1.6l-.87-.07c-3.92-.26-11.82,3.17-11.82,3.17h0Z"/><path class="cls-5" d="m388.12,202.36c5.67-5.08,2.29-15.83-4.12-11.74-6.03,3.85-19.45,4.99-22.22,5.01-3.85.04-62.57-4.5-64.8-23.21-2.23-18.71,23.58-37.24,57.65-41.38.07,0,.13-.01.2-.03,12.31-1.47,13.34-7.1,2.31-12.8-12.54-6.47-17.32.19-36.52,2.52-6.48.78-12.98,1.78-19.22,4.61-.4.18-1.26,1.21-1.5,1.47-.74.79-16.09,21.33-29.07,32.89-12.82,11.41-22.54,21.4-33.43,26.37-3.23,1.48-4.71,5.47-3.21,8.7,12.4,26.73,42.64,16.21,77.85,11.94,17.87-2.17,56.75,12.97,76.08-4.37h-.01Z"/><path class="cls-5" d="m324,147.98c-10.16,7.83-14.01,19.93-8.62,27.05,5.4,7.11,18.61,16.06,28.76,8.25,10.16-7.81,21.03-19.42,15.63-26.53-5.4-7.11-25.62-16.59-35.77-8.77h0Z"/><path class="cls-2" d="m277.76,193.35s5.53,6.63,9.14,8.18l.8.34c1.08.36,2.29.4,3.52-.01,2.09-.71,3.57-2.71,3.66-4.93.09-2.33-1.19-4.28-3.05-5.21,1.59-1.32,2.41-3.52,1.78-5.77s-2.5-3.75-4.69-3.96c-1.28-.13-2.46.19-3.42.79l-.71.51c-3.17,2.33-7.06,10.06-7.06,10.06h.03Z"/><path class="cls-5" d="m61.2,320.62c-1.4,7.52,7.79,13.95,10.37,6.75,2.43-6.76,12.38-15.93,14.54-17.65,3.02-2.4,52.25-34.98,65.38-21.53,13.11,13.45,3.92,44-20.56,68.26l-.15.15c-8.85,8.74-6.26,13.84,5.93,11.55,13.85-2.6,13.59-10.82,27.39-24.49,4.65-4.62,9.2-9.4,12.42-15.48.2-.39.27-1.74.29-2.09.09-1.08-.19-26.79,3.07-43.95,3.22-16.94,4.87-30.81,10.48-41.46,1.67-3.17.41-7.22-2.74-8.87-26.02-13.53-43.57,13.43-68.86,38.49-12.83,12.72-52.78,24.68-57.57,50.32h0Z"/><path class="cls-5" d="m142.27,326.8c3.3-12.45-.99-24.41-9.57-26.72s-24.47-1.25-27.76,11.2c-3.3,12.45-4.88,28.31,3.72,30.63,8.59,2.32,30.34-2.65,33.63-15.1h-.01Z"/><path class="cls-2" d="m151.35,262.41s-8.41-1.85-12.19-.84l-.84.23c-1.07.38-2.06,1.09-2.77,2.18-1.22,1.86-1.19,4.35.09,6.17,1.34,1.91,3.54,2.65,5.56,2.25-.45,2.03.23,4.27,2.09,5.67s4.24,1.43,6.11.24c1.1-.69,1.83-1.66,2.23-2.74l.25-.85c1.1-3.8-.52-12.31-.52-12.31h-.01Z"/><path class="cls-5" d="m209.24,386.99c5.39,5.39,15.83,1.33,11.37-4.86-4.18-5.82-6.12-19.27-6.32-22.04-.27-3.87.63-63.23,19.02-66.61s38.32,21.45,44.5,55.47c0,.07.03.13.04.2,2.21,12.3,7.85,12.99,12.82,1.54,5.64-13-1.24-17.41-4.73-36.59-1.18-6.47-2.55-12.95-5.73-19.05-.2-.39-1.27-1.19-1.55-1.41-.84-.69-22.09-14.87-34.35-27.24-12.08-12.19-22.56-21.37-28.15-32.01-1.66-3.17-5.69-4.41-8.82-2.69-25.72,14.11-13.45,43.9-7.06,79.05,3.23,17.84-9.37,57.9,8.98,76.27h-.01Z"/><path class="cls-5" d="m259.17,319.14c-8.37-9.74-20.6-12.88-27.31-7.02s-14.77,19.71-6.4,29.45c8.37,9.74,20.5,19.97,27.23,14.09,6.71-5.86,14.86-26.79,6.5-36.53h-.01Z"/><path class="cls-2" d="m211.42,275.4s-6.23,5.98-7.54,9.7l-.28.84c-.29,1.1-.25,2.33.24,3.53.84,2.06,2.9,3.44,5.11,3.4,2.31-.04,4.17-1.47,4.97-3.38,1.4,1.52,3.64,2.21,5.83,1.44s3.56-2.74,3.64-4.96c.05-1.31-.33-2.45-.99-3.4l-.56-.69c-2.5-3.05-10.4-6.48-10.4-6.48h-.01,0Z"/><path class="cls-5" d="m85.28,54.1c-7.43-1.54-13.95,7.64-6.86,10.36,6.67,2.55,15.61,12.72,17.28,14.93,2.34,3.09,33.9,53.21,20.36,66.22-13.54,13.02-43.71,3.27-67.39-21.76-.04-.05-.09-.09-.13-.15-8.54-9.05-13.63-6.52-11.55,5.81,2.37,13.99,10.52,13.86,23.87,27.97,4.5,4.76,9.18,9.42,15.17,12.76.39.22,1.71.3,2.07.32,1.07.11,26.57.22,43.55,3.77,16.75,3.5,30.49,5.38,40.97,11.2,3.11,1.72,7.16.53,8.84-2.63,13.82-26.02-12.66-44.13-37.13-69.99-12.42-13.12-23.69-53.58-49.03-58.8h-.01Z"/><path class="cls-5" d="m77.91,135.71c12.3,3.52,24.23-.62,26.65-9.24s1.62-24.64-10.68-28.16c-12.3-3.52-28.02-5.35-30.44,3.27-2.42,8.61,2.17,30.61,14.46,34.13h0Z"/><path class="cls-2" d="m141.64,145.85s1.95-8.45,1.02-12.27l-.21-.86c-.36-1.09-1.06-2.09-2.11-2.83-1.82-1.25-4.29-1.27-6.12,0-1.91,1.32-2.69,3.53-2.31,5.58-2-.5-4.24.16-5.65,2.02s-1.48,4.26-.33,6.16c.67,1.12,1.62,1.87,2.67,2.29l.84.27c3.74,1.16,12.22-.34,12.22-.34h0Z"/><path class="cls-5" d="m21.45,170.94c-6.67,3.65-5.81,14.89,1.35,12.37,6.74-2.37,20.06-.38,22.76.23,3.76.85,59.9,18.78,57.82,37.52-2.07,18.74-31.4,30.83-65.5,27.01-.07,0-.13-.01-.2-.03-12.32-1.4-14.6,3.84-5.15,11.92,10.73,9.19,16.91,3.8,36.13,5.96,6.48.73,13.03,1.27,19.76-.07.43-.08,1.5-.89,1.79-1.09.9-.61,20.49-17.06,35.76-25.33,15.06-8.16,26.79-15.64,38.52-17.97,3.49-.69,5.81-4.24,5.09-7.75-6.01-28.89-37.84-25.6-73.09-29.55-17.88-2.01-52.32-25.69-75.05-13.26v.03Z"/><g><path class="cls-6" d="m71.56,238.64c11.66-5.28,18.17-16.18,14.52-24.35-3.64-8.16-14.48-19.93-26.14-14.65-11.66,5.28-24.86,14.05-21.23,22.23,3.64,8.18,21.19,22.04,32.84,16.77h.01Z"/><path class="cls-2" d="m126.85,205.12s-3.89-7.73-7.06-10.06l-.71-.51c-.96-.59-2.14-.92-3.42-.79-2.19.22-4.09,1.82-4.69,3.96-.63,2.25.19,4.45,1.78,5.77-1.84.93-3.14,2.87-3.05,5.21s1.58,4.22,3.66,4.93c1.23.42,2.43.38,3.52.01l.8-.34c3.61-1.54,9.14-8.18,9.14-8.18h.03Z"/></g><rect class="cls-3" x="1" y="156.5" width="399" height="101"/><g><path d="m74.57,172.65v70.97h-6.49v-70.97h6.49Z"/><path d="m85.91,243.62v-70.97h7.09l16.11,35.91c3.73,8.32,6.64,15.79,9.03,23.06l.15-.11c-.6-9.48-.75-18.11-.75-29.17v-29.69h6.12v70.97h-6.56l-15.96-36.01c-3.51-7.9-6.86-16.01-9.4-23.69l-.22.11c.37,8.95.52,17.48.52,29.27v30.33h-6.12Z"/><path d="m135,173.59c3.95-.84,8.65-1.47,13.8-1.47,9.33,0,15.96,3.05,20.37,8.85,4.47,5.79,7.09,14,7.09,25.48s-2.54,21.06-7.24,27.59c-4.7,6.63-12.46,10.21-22.23,10.21-4.62,0-8.5-.32-11.79-.84v-69.81Zm6.49,62.76c1.64.42,4.03.53,6.56.53,13.88,0,21.41-10.95,21.41-30.12.08-16.74-6.64-27.38-20.37-27.38-3.36,0-5.89.42-7.61.95v56.02Z"/><path d="m191.18,172.65v29.69h24.32v-29.69h6.56v70.97h-6.56v-33.27h-24.32v33.27h-6.49v-70.97h6.49Z"/><path d="m276.3,207.39c0,24.43-10.52,37.38-23.35,37.38s-22.6-14.53-22.6-36.01c0-22.54,9.92-37.28,23.35-37.28s22.61,14.85,22.61,35.91Zm-39.02,1.16c0,15.16,5.82,28.75,16.04,28.75s16.12-13.37,16.12-29.48c0-14.11-5.22-28.85-16.04-28.85s-16.12,14-16.12,29.59Z"/><path d="m284.73,172.65h6.49v63.29h21.48v7.69h-27.97v-70.97Z"/><path d="m319.95,173.59c3.95-.84,8.65-1.47,13.8-1.47,9.32,0,15.96,3.05,20.37,8.85,4.48,5.79,7.09,14,7.09,25.48s-2.54,21.06-7.24,27.59c-4.7,6.63-12.46,10.21-22.23,10.21-4.62,0-8.5-.32-11.79-.84v-69.81Zm6.49,62.76c1.64.42,4.03.53,6.56.53,13.88,0,21.41-10.95,21.41-30.12.07-16.74-6.64-27.38-20.37-27.38-3.36,0-5.89.42-7.61.95v56.02Z"/></g></g></svg>