<?xml version="1.0" encoding="UTF-8"?><svg xmlns="http://www.w3.org/2000/svg" width="400" height="400" viewBox="0 0 400 400"><defs><style>.cls-1{fill:#fff;}.cls-2{opacity:.5;}.cls-3{fill:#ffe98a;}.cls-4{fill:#cae7ed;}.cls-5{fill:#d4fff9;}.cls-6{fill:#fff074;}.cls-7{fill:#f7882c;isolation:isolate;opacity:.9;}.cls-8{fill:none;stroke:#fff;stroke-miterlimit:10;stroke-width:9px;}</style></defs><g id="Lag_1"><rect class="cls-4" x="1" y="0" width="399" height="399"/><path class="cls-5" d="m113.31,117.58c-5.48,4.85-8.14,11.93-9.4,18.98s-1.74,15.03-.7,22.41,4.2,14.63,10.15,19.48,13.96,7.34,21.8,8.1c4.64.45,9.32.37,13.97.19,3.71-.15,7.42-.37,11.1-.89,6.89-.97,13.98-3.2,18.87-8.4s6.67-12.5,6.01-19.47c-.72-7.6-4.07-14.41-8.69-20.4-4.93-6.38-11-11.89-17.02-17.23s-12.13-10.11-19.74-11.81c-1.81-.4-3.66-.6-5.52-.6s-1.93,3,0,3c7.25,0,13.69,3.78,19.2,8.19,5.8,4.65,11.38,9.86,16.45,15.29s9.35,11.27,11.32,18.28c1.72,6.13,1.71,13.12-1.39,18.82s-9.27,9.09-15.63,10.58c-7.03,1.65-14.53,1.81-21.71,1.78-7.76-.03-15.72-.97-22.63-4.74-6.33-3.46-10.68-9.01-12.61-15.95s-1.71-13.99-1-20.92,2.12-13.52,6.06-19.02c.94-1.31,2.04-2.48,3.25-3.54,1.45-1.28-.68-3.4-2.12-2.12h0Z"/><path class="cls-5" d="m179.53,142.17l-14.33-.07c-4.17-.02-8.33-.27-11.93,2.19-7.09,4.86-8.29,14.15-9.59,21.97-.88,5.3-1.51,10.66-1.21,16.04.11,1.92,3.11,1.93,3,0-.24-4.37.1-8.73.75-13.05s1.27-8.28,2.36-12.29c.96-3.54,2.49-6.95,5.31-9.39,3.13-2.72,6.9-2.49,10.81-2.47l14.82.07c1.93,0,1.93-2.99,0-3h0Z"/><path class="cls-5" d="m145.52,141.06c-4.95-4.87-12.15-5.97-18.82-5.76-3.76.12-7.71.47-11.05,2.34-3.02,1.68-5.27,4.48-7.01,7.42-3.91,6.6-6.67,14.13-8.9,21.45s-3.86,15.34-4.71,23.2c-.97,8.99-.93,18.08.09,27.06.22,1.9,3.22,1.92,3,0-1.7-14.88-.65-30.01,3.11-44.51,1.88-7.25,4.41-14.33,7.61-21.11,1.38-2.93,2.87-5.93,5.09-8.33,2.47-2.68,5.63-3.91,9.21-4.3,6.82-.74,15.07-.45,20.26,4.65,1.38,1.36,3.5-.76,2.12-2.12h0Z"/><g><path d="m168.09,213.94l-8.55-33.7h4.6l4,17.05c1,4.2,1.9,8.4,2.5,11.65h.1c.55-3.35,1.6-7.35,2.75-11.7l4.5-17h4.55l4.1,17.1c.95,4,1.85,8,2.35,11.55h.1c.7-3.7,1.65-7.45,2.7-11.65l4.45-17h4.45l-9.55,33.7h-4.55l-4.25-17.55c-1.05-4.3-1.75-7.6-2.2-11h-.1c-.6,3.35-1.35,6.65-2.6,11l-4.8,17.55h-4.55Z"/><path d="m222.34,198.14h-13.1v12.15h14.6v3.65h-18.95v-33.7h18.2v3.65h-13.85v10.65h13.1v3.6Z"/><path d="m229.49,180.68c1.9-.4,4.9-.7,7.95-.7,4.35,0,7.15.75,9.25,2.45,1.75,1.3,2.8,3.3,2.8,5.95,0,3.25-2.15,6.1-5.7,7.4v.1c3.2.8,6.95,3.45,6.95,8.45,0,2.9-1.15,5.1-2.85,6.75-2.35,2.15-6.15,3.15-11.65,3.15-3,0-5.3-.2-6.75-.4v-33.15Zm4.35,13.8h3.95c4.6,0,7.3-2.4,7.3-5.65,0-3.95-3-5.5-7.4-5.5-2,0-3.15.15-3.85.3v10.85Zm0,16.15c.85.15,2.1.2,3.65.2,4.5,0,8.65-1.65,8.65-6.55,0-4.6-3.95-6.5-8.7-6.5h-3.6v12.85Z"/></g><rect class="cls-8" x="16" y="15" width="370" height="370"/></g><g id="Lag_2"><g><path class="cls-6" d="m372.56,149.72c-3.55-8.51-9.22-16-15.29-23-3.14-3.63-13.4-14.84-28.33-27.97-6.77,7.31-20.99,12.21-28.84,4.63-6.02-5.81-4.17-17.17.4-24.58-.12-.85-.17-1.71-.17-2.57-31.07-21.66-70.79-40.22-109.31-32.4-10.92,2.22-28.4,7.91-41.63,12.88-3.98,1.49-9.19,3.45-15,5.85.15,6.41-2.91,12.52-9.06,15.88-6.49,3.54-15.25,3.25-21.72-.56-11.33,6.94-37.06,24.54-55.11,55.91-16.2,28.15-18.13,52.64-19.35,101.72-.39,15.87-.52,32.47,6.8,46.63,7.45,14.42,21.54,24.21,35.1,33.41,11.31,7.68,22.62,15.36,33.93,23.03.5-2.64.96-5.28,1.84-7.6,2.05-5.39,5.76-9.43,11.42-10.95,11.12-2.98,25.4-1.25,34.12,6.53,8.11,7.24,12.82,19.34,8.93,29.91-1.44,3.91-4.01,6.82-7.21,8.89.14.04.27.08.41.12,11.5,3.06,23.56,3.34,35.47,3.56,23.29.44,46.58.75,69.87.94,7.33.06,14.77.09,21.82-1.85,15.23-4.19,26.29-16.75,36.39-28.69,22.1-26.11,44.8-53.31,53.92-86.04,5.45-19.55,5.73-40.08,5.98-60.34.18-14.66.28-29.77-5.39-43.34Z"/><path d="m375.15,148.2c-6.44-15.18-18.81-27.61-30.47-38.97-4.43-4.32-8.98-8.52-13.62-12.6-1.19-1.05-3.07-1.24-4.24,0-4.17,4.41-10.36,7.53-16.5,7.55s-10.71-3.91-11.01-10.12c-.16-3.32.54-6.63,1.75-9.72.6-1.53,1.59-2.88,2.19-4.39.42-1.06.17-2.29.09-3.4-.1-1.6-.7-2.34-1.97-3.25-6.79-4.84-13.95-9.24-21.23-13.29-14.83-8.26-30.75-15.03-47.41-18.5s-32.36-3.27-48.3.76c-17.33,4.39-34.31,10.59-50.83,17.39-1.23.51-2.22,1.46-2.2,2.89.06,5.91-2.94,11.03-8.28,13.66s-12.66,2.12-17.98-.92c-.92-.53-2.11-.56-3.03,0-14.03,8.61-26.89,19.26-37.82,31.58-13.3,15-24.08,32.6-29.95,51.84s-6.79,37.77-7.55,56.81c-.5,12.49-1.19,25.1-.59,37.59s3.01,24.66,9.85,35.09c6.44,9.82,15.62,17.34,25.09,24.1,11.07,7.9,22.47,15.36,33.72,23,2.88,1.95,5.75,3.9,8.63,5.86,1.52,1.03,4.06.04,4.41-1.79,1.16-6.15,2.72-12.64,8.85-15.62,5.1-2.48,12.02-2.5,17.52-1.79,5.92.77,11.95,2.97,16.38,7.06,4.53,4.18,7.69,9.76,8.76,15.84,1.19,6.77-.94,13.98-6.81,17.89-2.12,1.41-1.86,4.74.72,5.48,12.71,3.66,26.33,3.6,39.44,3.84,13.95.26,27.9.47,41.85.63,6.92.08,13.84.15,20.76.21,6.56.06,13.17.29,19.69-.52,11.93-1.48,21.99-7.21,30.74-15.28,8.41-7.76,15.59-16.89,22.89-25.66,7.71-9.26,15.25-18.7,22.13-28.6,6.8-9.8,12.95-20.1,17.72-31.05,5.04-11.54,8.37-23.57,10.08-36.05,1.83-13.29,2.16-26.69,2.33-40.08.16-12.63.47-25.5-2.56-37.87-.74-3.04-1.71-6.02-2.9-8.91-.62-1.5-1.99-2.56-3.69-2.1-1.42.39-2.71,2.18-2.1,3.69,4.73,11.51,5.37,23.94,5.34,36.24s-.15,25.64-1.23,38.39c-1.05,12.43-3.32,24.71-7.59,36.45-3.91,10.76-9.33,20.93-15.47,30.57s-13.27,19.08-20.58,28.11c-7.22,8.91-14.5,17.88-22.3,26.28-7.16,7.72-15.4,15.09-25.64,18.29-5.99,1.87-12.24,2.14-18.47,2.15-6.6.01-13.2-.1-19.8-.16-13.61-.14-27.21-.33-40.82-.56s-26.24.15-39.1-1.87c-3.07-.48-6.14-1.07-9.12-1.93l.72,5.48c6.69-4.46,10.18-11.73,10.08-19.73s-3.34-15.03-8.28-20.81-11.61-9.23-18.85-10.76c-7.14-1.51-15.36-1.59-22.32.85-3.89,1.36-7.09,3.84-9.48,7.18-2.77,3.89-3.79,8.48-4.66,13.08l4.41-1.79c-11.46-7.78-22.93-15.56-34.39-23.35-9.28-6.31-18.65-12.78-26.13-21.25s-11.88-19.48-13.21-31.03c-1.41-12.2-.66-24.64-.27-36.88.61-19.22,1.29-38.8,6.05-57.53,4.56-17.95,13.48-34.58,25.05-49,10.8-13.45,23.82-25.12,38.32-34.46,1.06-.69,2.14-1.36,3.22-2.02h-3.03c7.28,4.16,16.49,4.64,24.04.92,7.16-3.52,11.33-10.96,11.25-18.84l-2.2,2.89c10.31-4.25,20.79-8.13,31.38-11.62,9.96-3.28,20.17-6.6,30.59-8.03,23.17-3.17,46.67,3.15,67.52,12.99,11.95,5.64,23.3,12.48,34.14,20.02l-1.49-2.59c.01.86.07,1.71.17,2.57l.41-1.51c-4.34,7.18-6.87,17.74-2.19,25.38,4.82,7.85,14.95,8.83,22.97,6.04,4.64-1.62,8.98-4.24,12.36-7.82h-4.24c7.25,6.39,14.27,13.04,20.98,20,4.62,4.79,9.14,9.72,13.13,15.04,3.57,4.76,6.72,9.83,9.05,15.32.63,1.49,2.83,1.82,4.1,1.08,1.54-.9,1.71-2.61,1.08-4.1Z"/></g><g><path class="cls-3" d="m90.17,124.21c-1.33.79-5.91,3.57-9.02,9.01-2.5,4.38-2.8,8.2-2.99,15.84-.06,2.47-.08,5.06,1.05,7.26,1.15,2.24,3.32,3.77,5.42,5.2,2.04,1.39,4.07,2.79,6.11,4.18,2.12,1.45,4.28,2.92,6.77,3.59,1.77.48,3.63.52,5.47.55,3.59.07,7.19.12,10.78.15,1.13,0,2.28.01,3.37-.29,2.35-.65,4.06-2.61,5.62-4.47,3.41-4.07,6.91-8.3,8.32-13.4.84-3.04.88-6.24.92-9.4.03-2.28.04-4.64-.83-6.75-.55-1.32-1.42-2.49-2.36-3.58-1.53-1.78-13.95-15.3-25.65-12.91-1.68.35-4.38,1.23-6.42,2.01-1.51.57-4.17,1.58-6.55,2.99Z"/><path d="m88.66,121.62c-4.29,2.55-8.03,6.21-10.39,10.62-2.63,4.93-2.93,10.42-3.08,15.9-.1,3.53-.15,7.29,1.83,10.38s4.91,4.78,7.72,6.71,5.82,4.34,9.05,5.84c3.58,1.67,7.27,1.75,11.14,1.81,3.61.06,7.35.38,10.94.05s6.2-2.33,8.48-4.98c4.42-5.15,8.96-10.72,10.08-17.62.57-3.54.74-7.31.49-10.89-.26-3.77-1.65-6.71-4.12-9.55-2.11-2.42-4.53-4.59-7.06-6.55-4.74-3.68-10.11-6.72-16.18-7.33-3.12-.31-6.14.43-9.08,1.4-3.37,1.12-6.77,2.42-9.85,4.21-3.34,1.93-.32,7.12,3.03,5.18,2.22-1.29,4.5-2.22,6.9-3.08,1.24-.44,2.49-.86,3.75-1.21s1.98-.52,3.03-.56c2.24-.1,3.82.24,6.1,1.05,1.7.61,3.81,1.73,5.63,2.9,1.95,1.26,2.98,2.05,4.65,3.49,1.22,1.05,2.39,2.15,3.51,3.3.81.83,1.63,1.68,2.28,2.64,1.66,2.45,1.49,5.22,1.44,8.06-.05,3.15-.2,6.25-1.32,9.23-.98,2.6-2.62,4.99-4.32,7.17-1.6,2.07-3.31,4.49-5.38,6.13s-5.1,1.06-7.64,1.03c-3.36-.04-6.76.05-10.11-.22-2.9-.24-5.27-1.79-7.61-3.38-2.7-1.84-5.51-3.6-8.11-5.59-2.11-1.62-3.21-3.39-3.33-6.07-.14-3.1.03-6.3.32-9.39.03-.33.06-.66.1-.99.08-.62-.04.2.07-.45.1-.59.21-1.17.35-1.75s.29-1.11.47-1.65c.06-.18.12-.36.19-.53.07-.18.14-.35.21-.53-.1.23-.1.25-.02.06,1.15-2.51,2.75-4.71,4.74-6.6.46-.44.94-.85,1.43-1.26s.17-.14.06-.06c.27-.21.54-.41.82-.6.57-.4,1.17-.78,1.77-1.14,3.32-1.97.3-7.16-3.03-5.18Z"/></g><g><path class="cls-3" d="m233.8,104.38c-1.34.95-5.96,4.31-9.1,10.89-2.52,5.3-2.82,9.9-3.01,19.14-.06,2.98-.08,6.11,1.06,8.77,1.16,2.71,3.35,4.55,5.46,6.29,2.05,1.68,4.11,3.37,6.16,5.05,2.13,1.75,4.32,3.53,6.83,4.34,1.79.58,3.67.63,5.52.67,3.63.08,7.25.14,10.88.18,1.14.01,2.3.02,3.4-.35,2.37-.79,4.09-3.15,5.67-5.4,3.44-4.91,6.97-10.03,8.39-16.19.85-3.68.89-7.54.93-11.35.03-2.76.04-5.6-.84-8.15-.55-1.6-1.44-3.01-2.38-4.33-1.54-2.15-14.07-18.49-25.88-15.59-1.7.42-4.42,1.49-6.48,2.42-1.53.69-4.21,1.91-6.61,3.61Z"/><path d="m232.29,101.79c-4.36,3.1-7.95,7.24-10.24,12.1-2.52,5.37-3.08,11.08-3.27,16.94-.13,3.91-.48,8.11.64,11.91s3.74,6.42,6.67,8.84c3.19,2.62,6.31,5.42,9.69,7.8,1.6,1.13,3.39,2.07,5.3,2.55,2.08.52,4.25.56,6.39.6s4.28.09,6.43.12,4.19.18,6.25-.08c3.95-.52,6.46-3.38,8.66-6.46,4.35-6.09,8.54-12.54,9.61-20.1.59-4.14.71-8.42.56-12.6s-1.24-7.7-3.63-11.02c-2.1-2.91-4.51-5.64-7.11-8.11-3.92-3.72-8.54-7.19-13.83-8.64-6.21-1.7-11.93.74-17.47,3.44-1.61.79-3.17,1.67-4.64,2.69-1.33.92-1.94,2.63-1.08,4.1.77,1.32,2.77,2.01,4.1,1.08,2.4-1.66,5.04-2.97,7.73-4.1,1.32-.55,2.67-1.07,4.05-1.47.29-.08.59-.16.89-.23.05-.01,1-.17.35-.09.57-.08,1.15-.09,1.72-.08,1.71.04,4.14.76,5.79,1.59,1,.5,1.97,1.07,2.91,1.69.51.34,1.02.69,1.51,1.05.58.42.43.31,1.08.84,3.03,2.48,5.77,5.35,8.2,8.41.1.12.19.24.29.36.36.44-.45-.61-.14-.18.1.14.22.28.32.43.75,1.01,1.47,2.08,2,3.23,1.39,3.01,1.02,6.68.97,9.9-.06,3.5-.24,6.97-1.25,10.34-.95,3.18-2.55,6.1-4.33,8.89-1.59,2.51-3.22,5.21-5.25,7.39-.88.95-1.63,1.57-2.82,1.73-1.83.24-3.82.01-5.67-.01s-3.63-.06-5.44-.1-3.59.05-5.31-.35c-3.25-.75-5.83-3.35-8.33-5.39s-5.55-4.13-7.73-6.69-2.2-5.53-2.17-8.59c.04-3.52.1-7.08.46-10.59.03-.32.07-.64.11-.96-.06.5.05-.37.06-.43.11-.68.23-1.36.39-2.03.28-1.21.64-2.4,1.08-3.55,0-.02.38-.9.14-.36.18-.41.37-.82.57-1.22.38-.76.79-1.5,1.23-2.23.81-1.33,1.58-2.39,2.58-3.52.81-.91,1.68-1.77,2.61-2.57.21-.18,1.44-1.13.65-.55.25-.19.51-.38.76-.56,1.32-.94,1.95-2.62,1.08-4.1-.76-1.3-2.78-2.02-4.1-1.08Z"/></g><g><path class="cls-3" d="m159.51,160.48c-.78.47-3.46,2.14-5.28,5.42-1.46,2.63-1.64,4.93-1.75,9.52-.04,1.48-.05,3.04.61,4.36.67,1.35,1.95,2.27,3.17,3.13,1.19.84,2.38,1.68,3.58,2.51,1.24.87,2.51,1.76,3.96,2.16,1.04.29,2.13.31,3.2.33,2.1.04,4.21.07,6.31.09.66,0,1.33,0,1.97-.17,1.38-.39,2.38-1.57,3.29-2.68,2-2.44,4.05-4.99,4.87-8.05.49-1.83.52-3.75.54-5.65.02-1.37.03-2.79-.49-4.06-.32-.8-.83-1.5-1.38-2.15-.89-1.07-8.17-9.2-15.02-7.76-.99.21-2.57.74-3.76,1.21-.89.34-2.44.95-3.84,1.8Z"/><path d="m157.99,157.89c-2.69,1.64-5.03,3.97-6.5,6.76-1.69,3.2-1.91,6.74-2,10.29-.06,2.24,0,4.5,1.1,6.51,1.03,1.88,2.84,3.11,4.55,4.32s3.52,2.66,5.44,3.69c2.19,1.17,4.46,1.41,6.91,1.46,2.25.04,4.57.22,6.82.06,2.42-.18,4.31-1.3,5.88-3.11,2.73-3.15,5.56-6.72,6.36-10.91.42-2.21.5-4.52.44-6.76-.07-2.61-.85-4.73-2.48-6.76-1.23-1.54-2.69-2.91-4.22-4.14-3.04-2.45-6.43-4.48-10.38-4.92-1.98-.22-3.91.2-5.78.83-2.11.71-4.22,1.55-6.15,2.68-3.33,1.95-.31,7.14,3.03,5.18,1.27-.75,2.45-1.26,3.8-1.75.71-.26,1.43-.51,2.16-.71.9-.25,1.02-.29,1.68-.3.31,0,.63,0,.94.04-.49-.05.17.03.29.06.57.13,1.13.28,1.68.48.29.1.77.32,1.34.61.66.35,1.3.74,1.91,1.16.99.66,1.4.99,2.41,1.9.67.6,1.33,1.23,1.95,1.89.4.42.8.85,1.13,1.33.84,1.24.7,2.7.68,4.14-.03,1.76-.07,3.49-.67,5.16-.55,1.55-1.53,2.97-2.52,4.28-.81,1.06-1.64,2.28-2.66,3.14s-2.83.49-4.24.47c-1.75-.02-3.53.04-5.27-.11s-2.94-1.1-4.27-2.03-2.88-1.93-4.18-2.94c-1.06-.81-1.59-1.48-1.69-2.84-.13-1.86.02-3.82.18-5.67,0,.02.13-1.07.05-.5.06-.4.14-.79.23-1.18.13-.56.3-1.12.53-1.65-.24.55.19-.34.2-.36.24-.46.51-.91.81-1.34.42-.6.91-1.14,1.43-1.65.22-.22.46-.43.69-.63.14-.12.29-.24.44-.36-.26.2-.27.21-.01.02.32-.23.65-.44.99-.65,3.29-2.01.28-7.2-3.03-5.18Z"/></g><g><path class="cls-3" d="m117.87,275.07c1.17.41,5.21,1.87,7.95,4.71,2.2,2.29,2.47,4.28,2.63,8.28.05,1.29.07,2.64-.92,3.79-1.01,1.17-2.93,1.97-4.77,2.72-1.79.73-3.59,1.46-5.38,2.19-1.86.76-3.78,1.53-5.97,1.88-1.56.25-3.2.27-4.82.29-3.17.04-6.34.06-9.5.08-1,0-2.01,0-2.97-.15-2.07-.34-3.58-1.36-4.95-2.33-3.01-2.12-6.09-4.34-7.33-7-.74-1.59-.78-3.26-.81-4.91-.02-1.19-.04-2.42.73-3.53.48-.69,1.25-1.3,2.08-1.87,1.35-.93,12.3-8,22.61-6.75,1.49.18,3.86.64,5.66,1.05,1.33.3,3.68.83,5.77,1.56Z"/><path d="m117.07,277.96c.41.15.83.3,1.24.46.1.04.5.22.02,0,.14.06.27.12.4.18.39.19.78.37,1.16.57,1.5.79,2.89,1.71,4.03,2.96.14.16.29.32.41.48-.04-.05-.2-.28-.03,0s.34.56.5.86c-.24-.47.1.29.15.45.11.38.2.76.27,1.14.06.34.02.05,0-.02.03.22.05.45.07.67.04.43.07.86.09,1.29.04.7.13,1.94.05,2.35-.22,1.11-2.15,1.74-3.3,2.21-2.12.88-4.25,1.74-6.38,2.59-1.94.77-3.93,1.48-6.03,1.63-2.31.17-4.64.12-6.96.14s-4.52.08-6.77.03c-1.84-.04-3.23-.63-4.74-1.65-2.64-1.8-6.59-4.07-7.14-7.49-.22-1.37-.53-3.56.5-4.51.58-.53,1.29-.94,1.95-1.35.93-.57,1.88-1.1,2.84-1.6,1.31-.68,2.65-1.3,3.79-1.75,3.75-1.47,7.64-2.49,11.66-2.31.52.02,1.05.06,1.57.13-.44-.05.14.02.19.03.25.04.49.08.74.12,1.13.19,2.26.42,3.38.66,2.14.46,4.26.98,6.33,1.68,1.53.52,3.28-.6,3.69-2.1.45-1.64-.56-3.16-2.1-3.69-4.23-1.45-8.94-2.54-13.41-2.82s-8.89.72-12.98,2.25c-3.08,1.15-6.08,2.57-8.87,4.3-1.16.72-2.35,1.49-3.3,2.47-2.03,2.09-2.21,4.81-2.05,7.57s.95,5.19,2.72,7.38c1.51,1.88,3.49,3.34,5.43,4.75s3.9,2.85,6.25,3.48c2.55.69,5.33.44,7.95.42,5.36-.04,10.84.3,15.94-1.61,2.49-.93,4.94-1.98,7.4-2.99,2.22-.91,4.59-1.81,6.15-3.73,1.84-2.27,1.67-5.17,1.42-7.91-.2-2.21-.62-4.4-1.9-6.27-2.51-3.67-6.65-5.86-10.75-7.3-1.53-.54-3.28.61-3.69,2.1-.46,1.66.56,3.15,2.1,3.69Z"/></g><g><path class="cls-3" d="m259.38,308.2c-1.16.65-5.17,2.95-7.89,7.44-2.19,3.62-2.45,6.77-2.61,13.07-.05,2.04-.07,4.17.92,5.99,1.01,1.85,2.91,3.11,4.74,4.29,1.78,1.15,3.56,2.3,5.35,3.45,1.85,1.2,3.75,2.41,5.93,2.96,1.55.39,3.18.43,4.79.46,3.15.06,6.29.1,9.44.12.99,0,2,.01,2.95-.24,2.06-.54,3.55-2.15,4.92-3.69,2.99-3.36,6.05-6.85,7.28-11.06.74-2.51.77-5.15.81-7.76.02-1.88.04-3.83-.73-5.57-.48-1.09-1.25-2.06-2.07-2.96-1.34-1.47-12.21-12.63-22.46-10.65-1.48.29-3.84,1.02-5.62,1.66-1.33.47-3.65,1.3-5.74,2.47Z"/><path d="m257.86,305.61c-3.71,2.08-6.98,5.09-9.13,8.78-2.39,4.11-2.7,8.77-2.84,13.42-.09,2.97-.13,6.13,1.5,8.75s4.34,4.2,6.85,5.83,5.14,3.58,7.95,4.87c3.02,1.4,6.11,1.58,9.39,1.63s6.5.24,9.72.09,5.75-1.62,7.93-3.93c3.89-4.13,8.01-8.87,9.17-14.59.62-3.03.73-6.31.57-9.4-.18-3.35-1.4-6-3.65-8.46-1.93-2.12-4.18-3.97-6.47-5.67-4.16-3.1-8.96-5.51-14.18-6.02-2.74-.27-5.42.34-8.03,1.15-3,.93-6.01,2.04-8.78,3.55-3.39,1.85-.37,7.03,3.03,5.18,1.96-1.07,4.04-1.85,6.15-2.55,1.04-.35,2.09-.67,3.15-.95.5-.13,1-.25,1.51-.34.6-.11-.69.05.35-.05.27-.02.55-.04.82-.05,1.93-.05,3.23.23,5.19.9,1.61.55,3.25,1.4,4.93,2.44,2.74,1.69,4.52,3.13,6.89,5.44.7.68,1.43,1.4,2.01,2.19,1.35,1.87,1.13,4.17,1.09,6.36-.04,2.45-.15,4.94-1.09,7.24-.87,2.13-2.29,4.06-3.75,5.81-1.39,1.66-2.83,3.63-4.57,4.93-1.88,1.42-4.81.82-7.01.79-2.78-.03-5.6.04-8.38-.18-2.42-.19-4.42-1.4-6.42-2.68-2.37-1.52-4.78-3-7.09-4.6-1.67-1.16-2.69-2.46-2.8-4.53-.13-2.56.02-5.21.27-7.76.07-.75.02-.41.14-1.1.08-.48.18-.96.3-1.44s.25-.91.41-1.36c.06-.18.13-.35.2-.53-.22.54.15-.3.16-.33,1.01-2.07,2.44-3.83,4.17-5.34.95-.84,1.94-1.53,3.37-2.33,3.37-1.89.35-7.07-3.03-5.18Z"/></g><g><path class="cls-3" d="m236.71,254.48c-.52.35-2.3,1.6-3.51,4.04-.97,1.96-1.09,3.67-1.16,7.1-.02,1.11-.03,2.27.41,3.25.45,1.01,1.29,1.69,2.11,2.33.79.62,1.59,1.25,2.38,1.87.82.65,1.67,1.31,2.64,1.61.69.21,1.42.23,2.13.25,1.4.03,2.8.05,4.2.07.44,0,.89,0,1.31-.13.92-.29,1.58-1.17,2.19-2,1.33-1.82,2.69-3.72,3.24-6,.33-1.36.34-2.8.36-4.21.01-1.02.02-2.08-.32-3.02-.21-.59-.55-1.12-.92-1.61-.6-.8-5.43-6.86-9.99-5.78-.66.15-1.71.55-2.5.9-.59.26-1.62.71-2.55,1.34Z"/><path d="m235.2,251.89c-2.06,1.41-3.79,3.3-4.81,5.6-1.1,2.46-1.27,5.05-1.34,7.71-.04,1.5-.03,3.05.51,4.47.64,1.69,1.84,2.83,3.22,3.92,1.28,1.01,2.54,2.13,3.91,3.01,1.68,1.08,3.48,1.3,5.44,1.34,1.47.03,2.97.14,4.44.04,1.87-.12,3.38-1.01,4.54-2.44,1.95-2.41,3.9-5.2,4.52-8.29s.9-7.46-.96-10.29c-.91-1.38-2.07-2.66-3.28-3.78-1.94-1.79-4.31-3.48-6.97-3.91-3.2-.52-6.56.9-9.21,2.62-1.36.88-1.92,2.66-1.08,4.1.79,1.35,2.74,1.96,4.1,1.08.73-.47,1.95-1.09,2.47-1.3.48-.19.96-.38,1.46-.52.22-.06.44-.13.67-.17-.53.09.03.05.26.04.14,0,.56.09,0-.02.18.03.35.07.52.12.22.06.43.13.64.21.44.15-.38-.2.04.02.37.19.74.38,1.1.61.16.1.31.2.47.31.11.07.69.51.28.19,1.12.89,2.14,1.92,3.05,3.02.1.12.19.28.32.39-.89-.78-.09-.16.19.35.43.77.33,1.75.31,2.77-.04,2.49-.51,4.34-1.88,6.42-.48.73-1.16,1.73-1.59,2.2-.29.33-.46.38.03.29-.6.12-1.31,0-1.92,0-1.24-.02-2.57.1-3.8-.08-.86-.13-1.59-.8-2.29-1.35-.94-.74-1.93-1.44-2.81-2.26-.64-.6-.7-.99-.71-1.93-.01-1.27.05-2.55.14-3.82,0-.14.09-.8,0-.22.03-.22.07-.45.12-.67.1-.47.24-.91.38-1.37.04-.12.24-.5,0,0,.16-.32.31-.63.5-.94.3-.51.51-.79.76-1.07.3-.34.63-.65.97-.95.05-.04.62-.47.17-.15-.41.3.07-.04.15-.09,1.33-.92,1.94-2.63,1.08-4.1-.77-1.32-2.76-2-4.1-1.08Z"/></g><g><path class="cls-3" d="m277.34,178.49c-.76.71-3.38,3.2-4.53,6.33-.92,2.52-.45,4.16.77,7.32.4,1.02.84,2.08,2,2.64,1.18.57,2.93.55,4.6.51,1.63-.04,3.26-.07,4.89-.11,1.69-.04,3.43-.08,5.23-.54,1.29-.33,2.56-.86,3.82-1.39,2.45-1.04,4.9-2.08,7.35-3.13.77-.33,1.55-.67,2.24-1.11,1.48-.96,2.29-2.26,3.03-3.48,1.6-2.66,3.23-5.42,3.28-7.9.03-1.49-.5-2.8-1.03-4.09-.38-.94-.79-1.9-1.76-2.49-.61-.38-1.41-.59-2.24-.76-1.35-.27-12.18-2.09-19.71,2.35-1.08.64-2.76,1.8-4.01,2.71-.93.68-2.55,1.88-3.92,3.15Z"/><path d="m275.22,176.37c-2.45,2.3-4.73,5.21-5.57,8.52-.48,1.88-.36,3.8.19,5.65s1.27,4.09,2.64,5.6c1.53,1.69,3.85,2.1,6.02,2.15,2.32.06,4.66-.07,6.99-.13s4.53-.25,6.68-.96,4.35-1.75,6.49-2.66c2-.85,4.12-1.6,6.03-2.65s3.31-2.71,4.45-4.56c2.37-3.86,4.84-8.18,3.4-12.84-.58-1.88-1.37-4.04-2.89-5.38-1.23-1.08-2.81-1.57-4.4-1.84-2.41-.41-4.87-.62-7.32-.61-4.18.02-8.36.68-12.19,2.36s-7.46,4.54-10.51,7.33c-1.2,1.09-1.11,3.13,0,4.24,1.19,1.19,3.04,1.1,4.24,0,2.22-2.03,4.73-3.88,7.32-5.4,2.25-1.32,5.26-2.1,7.63-2.35s4.98-.24,7.45-.01c.44.04.87.1,1.31.14.68.07-.71-.12-.09-.01.14.03.29.04.44.07.69.11,1.75.23,2.14.55-.17-.14.12.17.15.21-.04-.06.45.9.27.51.34.74.68,1.58.84,2.38.28,1.43-.28,2.77-.95,4.08-.76,1.5-1.6,3.09-2.61,4.44-.96,1.28-2.38,1.85-3.84,2.47-3.26,1.4-6.57,3.16-10.02,4.04-1.61.41-3.27.41-4.92.45-2.02.04-4.05.16-6.07.11.18,0-1.07-.06-.78-.02.02,0-.91-.14-.63-.09-.39-.07-.46-.48-.62-.85-.38-.88-.7-1.81-.95-2.74s-.27-.88-.18-1.78c-.05.55.14-.52.13-.5.1-.38.23-.72.39-1.08.37-.8.87-1.57,1.4-2.28s1.43-1.63,2.19-2.35c2.83-2.64-1.42-6.88-4.24-4.24Z"/></g><g><path class="cls-3" d="m332.28,209.41c-.91.49-4.06,2.23-6.19,5.63-1.72,2.74-1.92,5.12-2.05,9.89-.04,1.54-.06,3.16.72,4.53.79,1.4,2.28,2.35,3.72,3.25,1.4.87,2.79,1.74,4.19,2.61,1.45.91,2.94,1.83,4.65,2.24,1.22.3,2.5.32,3.76.35,2.47.04,4.93.07,7.4.09.78,0,1.56,0,2.31-.18,1.61-.41,2.78-1.63,3.86-2.79,2.34-2.54,4.75-5.18,5.71-8.36.58-1.9.61-3.9.63-5.87.02-1.42.03-2.89-.57-4.21-.38-.83-.98-1.56-1.62-2.24-1.05-1.11-9.58-9.56-17.61-8.06-1.16.22-3.01.77-4.41,1.25-1.04.36-2.86.99-4.5,1.87Z"/><path d="m330.77,206.82c-3.04,1.65-5.76,4.09-7.5,7.1-1.95,3.36-2.13,7.22-2.22,11.01-.06,2.49.2,4.93,1.78,6.97,1.41,1.83,3.47,2.98,5.41,4.19,2.17,1.35,4.29,2.84,6.66,3.81s4.89,1,7.43,1.04,5.24.28,7.8.01,4.44-1.47,6.16-3.25c3.19-3.3,6.56-7.1,7.34-11.78.39-2.35.56-4.88.33-7.26-.24-2.57-1.29-4.61-3.06-6.47-1.6-1.67-3.45-3.15-5.33-4.48-3.4-2.41-7.34-4.25-11.54-4.55-2.22-.16-4.41.37-6.51,1.01-2.3.71-4.59,1.55-6.72,2.66-1.44.75-1.87,2.75-1.08,4.1.85,1.46,2.66,1.83,4.1,1.08s2.84-1.26,4.33-1.75c.83-.27,1.67-.53,2.52-.76.35-.09.69-.18,1.04-.25.16-.03.31-.07.47-.09.57-.09-.65.02.36-.02,2.7-.11,5.06.75,7.48,2.14,1.2.69,2.36,1.46,3.46,2.3-.37-.28.14.11.25.21.2.16.39.32.59.48.39.33.78.67,1.16,1.02.47.43.93.87,1.36,1.34,1.17,1.26,1.19,2.51,1.18,4.18-.02,1.84-.03,3.7-.65,5.46-.56,1.56-1.59,2.97-2.64,4.22-1.12,1.33-2.34,2.94-3.75,3.98-1.15.85-3.17.53-4.69.51-2.12-.02-4.25-.01-6.37-.1-1.9-.08-3.36-.72-4.97-1.7-1.82-1.1-3.63-2.23-5.42-3.38-1.12-.71-2.2-1.38-2.42-2.74-.3-1.88-.02-4.04.14-5.93.07-.8.07-.9.29-1.84.09-.37.2-.73.32-1.1,0-.02.16-.46.05-.17-.1.27.11-.25.14-.3,1.36-2.74,3.34-4.42,5.77-5.73,3.4-1.84.37-7.02-3.03-5.18Z"/></g><g><path class="cls-3" d="m184.36,236.35c-1.13.61-5.04,2.78-7.68,7.02-2.13,3.41-2.38,6.38-2.54,12.33-.05,1.92-.07,3.94.89,5.65.98,1.75,2.83,2.93,4.61,4.05,1.73,1.09,3.47,2.17,5.2,3.26,1.8,1.13,3.65,2.28,5.77,2.8,1.51.37,3.1.4,4.66.43,3.06.05,6.12.09,9.19.11.96,0,1.94.01,2.87-.22,2-.51,3.46-2.03,4.78-3.48,2.91-3.17,5.89-6.46,7.09-10.43.72-2.37.75-4.86.79-7.31.02-1.78.04-3.61-.71-5.25-.47-1.03-1.21-1.94-2.01-2.79-1.3-1.39-11.89-11.92-21.86-10.05-1.44.27-3.73.96-5.47,1.56-1.29.45-3.55,1.23-5.58,2.33Z"/><path d="m182.85,233.76c-3.69,2-6.98,4.97-9.08,8.63-2.33,4.07-2.52,8.73-2.63,13.31-.08,3.03.23,5.96,2.18,8.4,1.73,2.18,4.29,3.56,6.62,5.02,2.45,1.53,4.86,3.24,7.53,4.39,2.98,1.28,6.07,1.35,9.27,1.4,2.98.05,6,.21,8.98.08s5.4-1.39,7.51-3.49c3.91-3.89,8.09-8.62,9.22-14.18.59-2.89.73-6.06.53-9-.22-3.17-1.43-5.68-3.61-7.98-1.96-2.07-4.23-3.89-6.55-5.53-4.09-2.9-8.82-5.16-13.88-5.53-2.7-.2-5.34.44-7.9,1.24-2.79.86-5.58,1.88-8.17,3.24-1.43.76-1.87,2.75-1.08,4.1.85,1.45,2.67,1.83,4.1,1.08,1.79-.94,3.67-1.63,5.59-2.27,1.02-.34,2.04-.65,3.08-.93s1.78-.44,2.54-.48c3.45-.2,6.66,1.05,9.75,2.84,2.92,1.69,4.65,3.03,7.01,5.24.66.61,1.32,1.25,1.9,1.94,1.48,1.8,1.28,3.99,1.24,6.19-.05,2.32-.16,4.65-1.1,6.81s-2.37,3.94-3.86,5.65c-1.29,1.48-2.7,3.38-4.31,4.41-1.75,1.12-4.33.65-6.38.63-2.71-.03-5.45.02-8.16-.16-2.29-.15-4.15-1.11-6.07-2.3-2.21-1.36-4.41-2.73-6.6-4.13-1.66-1.06-3.1-2.12-3.34-4.17-.27-2.37,0-4.99.22-7.37.09-.99.11-1.23.38-2.35.11-.47.25-.94.4-1.4.06-.18.13-.36.2-.54-.21.52.16-.32.17-.35.96-1.93,2.31-3.55,3.93-4.96.85-.74,2.11-1.6,3.43-2.31,3.4-1.84.37-7.02-3.03-5.18Z"/></g><rect class="cls-7" x="1" y="162" width="399" height="101"/><g><path d="m137.62,244.13l-12.76-70.97h6.86l5.97,35.91c1.49,8.85,2.83,17.69,3.73,24.54h.15c.82-7.06,2.39-15.48,4.1-24.64l6.71-35.8h6.79l6.12,36.01c1.42,8.42,2.76,16.85,3.51,24.32h.15c1.04-7.79,2.46-15.69,4.03-24.53l6.64-35.8h6.64l-14.25,70.97h-6.79l-6.34-36.96c-1.57-9.06-2.61-16.01-3.28-23.17h-.15c-.9,7.06-2.01,14.01-3.88,23.17l-7.16,36.96h-6.79Z"/><path d="m218.57,210.86h-19.54v25.59h21.78v7.69h-28.27v-70.97h27.15v7.69h-20.66v22.43h19.54v7.58Z"/><path d="m229.24,174.11c2.83-.84,7.31-1.47,11.86-1.47,6.49,0,10.67,1.58,13.8,5.16,2.61,2.74,4.18,6.95,4.18,12.53,0,6.84-3.21,12.85-8.5,15.58v.21c4.77,1.69,10.37,7.27,10.37,17.8,0,6.11-1.72,10.74-4.25,14.22-3.51,4.53-9.18,6.63-17.38,6.63-4.48,0-7.91-.42-10.07-.84v-69.81Zm6.49,29.06h5.89c6.86,0,10.89-5.05,10.89-11.9,0-8.32-4.48-11.58-11.04-11.58-2.98,0-4.7.32-5.74.63v22.85Zm0,34.01c1.27.32,3.13.42,5.45.42,6.71,0,12.91-3.48,12.91-13.79,0-9.69-5.89-13.69-12.98-13.69h-5.37v27.06Z"/></g><g class="cls-2"><path class="cls-1" d="m204.02,72.32c1.34.11,2.68.24,4.01.39.61.07,1.21.14,1.82.22.4.05,1.69.3-.14-.02.36.06.73.1,1.09.15,2.66.38,5.3.85,7.93,1.38,5.2,1.06,10.33,2.4,15.39,4.01,2.5.8,4.97,1.66,7.43,2.59,1.25.47,2.5.97,3.75,1.47.43.18,2.28,1.09.59.24.65.33,1.35.58,2.01.87,4.91,2.17,9.71,4.6,14.37,7.28s8.98,5.45,13.26,8.51c1.09.78,2.18,1.58,3.25,2.39.38.28,1.92,1.6.53.4.55.48,1.16.91,1.73,1.36,2.1,1.68,4.16,3.41,6.17,5.19,3.93,3.48,7.69,7.16,11.25,11.02,1.82,1.97,3.59,3.99,5.3,6.06.86,1.03,1.7,2.08,2.53,3.13.15.19.3.38.45.58.81,1.04-.84-1.11-.04-.06.44.58.88,1.17,1.32,1.75,3.55,4.8,6.82,9.81,9.77,15.01,1.44,2.55,2.81,5.14,4.09,7.77.64,1.32,1.26,2.64,1.87,3.98.3.67.6,1.34.89,2.01.16.36.54,1.56-.03-.08.16.46.38.91.56,1.36.61,1.51,1.3,2.73,2.76,3.59,1.29.75,3.18,1.07,4.62.6,2.79-.9,5.46-4.27,4.19-7.38-8.57-21.01-21.68-39.92-38.32-55.36s-36.15-27.21-57.45-34.62c-11.93-4.15-24.35-6.71-36.93-7.78-3.14-.27-6.14,2.95-6,6,.16,3.48,2.64,5.71,6,6h0Z"/></g></g></svg>