<?xml version="1.0" encoding="UTF-8"?><svg xmlns="http://www.w3.org/2000/svg" width="400" height="400" viewBox="0 0 400 400"><defs><style>.cls-1{stroke:#754c24;stroke-width:3px;}.cls-1,.cls-2,.cls-3,.cls-4,.cls-5,.cls-6,.cls-7,.cls-8,.cls-9{stroke-miterlimit:10;}.cls-1,.cls-10,.cls-3,.cls-4{fill:none;}.cls-11{opacity:.45;}.cls-11,.cls-12,.cls-13,.cls-6{fill:#fff;}.cls-14{opacity:.2;}.cls-14,.cls-15{fill:#c1272d;}.cls-16,.cls-2{fill:#a67c52;}.cls-13{opacity:.8;}.cls-17{fill:#d4145a;}.cls-2{stroke:#a67c52;}.cls-18{fill:gray;}.cls-19{fill:#cae7ed;}.cls-20{fill:#0071bc;}.cls-3{stroke-width:7px;}.cls-3,.cls-7,.cls-8{stroke:#000;}.cls-21{fill:#f7882c;isolation:isolate;opacity:.9;}.cls-4{stroke-width:9px;}.cls-4,.cls-5,.cls-6,.cls-9{stroke:#fff;}.cls-22{fill:#ccc;}.cls-5{fill:#d46b00;}.cls-23{fill:#ffe8df;}.cls-7{opacity:.3;}.cls-24{fill:#29abe2;}.cls-25{fill:#94b2ff;}.cls-26{fill:#553421;}.cls-8{fill:#ffd7df;}.cls-9{fill:#ffbdaa;}</style></defs><g id="Lag_1"><rect class="cls-19" x="1" y="1" width="399" height="399"/><rect class="cls-4" x="15.5" y="17.5" width="370" height="370"/></g><g id="Lag_2"><g><path class="cls-5" d="m251.99,116.72l-6.34,21.16-4.73-9.56-6.95,5.26-13.83-6.28,1.07-11.07h-5.59l-4.7-4.28-1.44-5.73,9.52-14.04-8.07-6.74,6.28-16-.45-7.76,7.18-7.27h12.5l.96-10.66,9.87-4.85,12.96,1.38,12.62-9.14,14.05,2.21,2.36,9.4,5.14-2.92s7.63-4.82,8.52-4.82,7.29.59,7.29.59c0,0,8.27,3.75,9.24,4s5.91,3.65,5.91,3.65l5.94,1.02,3.93-4.41,6.75-.7,7.62,2.15,6.28,9.7,11.6,1.27,10.14,8.29-1.55,12.26,10.81,7.66.82,13.42-3.29,4.81-2.68,1.11,5.97,6.38-1.77,9.2-9.14,7.83-2.47,2.53-1.4,5.22-8.08.97-7.15-2.17-103.71-13.83-2.02.74Z"/><path class="cls-23" d="m252.21,83.99c-2.65.78-4.23-3.22-8.53-3.39-5.17-.21-9.17,5.33-9.87,6.3-1.16,1.61-2.12,4.95-4.04,11.63-1.32,4.59-1.57,6.23-1.35,8.24.13,1.16.49,4.34,2.69,6.79,2.07,2.3,4.67,2.66,9.87,3.39,3.48.49,5.68.8,8.53,0,2.31-.64,3.43-1.56,4.04-.97.47.45.4,1.55-2.24,8.73-1.66,4.51-1.85,4.67-2.24,6.3-.61,2.56-.72,4.56-.9,7.76-.2,3.75-.31,5.63,0,6.79,1.2,4.53,5.27,6.9,6.73,7.76,2.05,1.2,4.04,1.79,9.43,2.42,6.62.79,10.47.71,14.81.97,7.69.45,9.03,1.47,14.36,1.94,7.04.62,14.74-.82,22.44-2.91,9.92-2.69,7.91-3.76,16.61-5.82,5.25-1.24,8.83-1.52,12.12-4.85.33-.34.01-.05,4.94-6.3,2.55-3.24,3.12-3.93,3.59-5.33.96-2.86.45-5.46,0-7.76-.35-1.79-1.04-5.29-3.59-8.24-2.29-2.65-4.68-3.22-4.49-3.88.18-.63,2.43-.19,8.08,0,2.48.08,3.75.12,5.39,0,3.93-.3,5.98-.46,7.63-1.94,1.79-1.61,2.13-3.91,2.69-7.76.28-1.93.82-5.85-.45-10.66-.54-2.06-1.41-5.37-4.04-8.24-.5-.54-.6-.57-5.39-3.88-5.21-3.6-5.99-4.19-7.18-3.88-1.12.29-1.2,1.01-4.49,2.91-1.67.97-2.01.99-2.24.97-2.39-.2-3.77-5.87-4.04-6.79-4.18-14.14-77.43-21.81-84.38-.48-1.02,3.12-1.4,9.28-4.49,10.18Z"/><polygon class="cls-9" points="296.72 109.21 286.9 109.21 284.71 111.95 282.42 116.72 291.26 123.26 306 123.26 312.39 116.23 305.39 110.68 296.72 109.21"/><polyline class="cls-25" points="290.77 80.5 271.58 81.64 263.63 91.77 262.39 105.43 292.34 107.34 292.26 80.5 290.77 80.5"/><polygon class="cls-25" points="328.24 87.39 321.65 80.78 301.41 80.5 301.41 106.23 331.31 106.23 328.24 87.39"/><polygon class="cls-6" points="271.55 132.33 269.86 144.79 295.31 148.95 322.78 143.87 324.87 130.2 297.24 134.91 271.55 132.33"/><polygon class="cls-22" points="282.83 139.74 277.01 139.31 277.04 138.83 282.86 139.25 282.83 139.74"/><polygon class="cls-22" points="291.3 140.29 301.24 139.88 301.26 140.29 291.31 140.69 291.3 140.29"/><polygon class="cls-22" points="277.88 139.19 270.5 137.89 270.56 137.47 277.95 138.77 277.88 139.19"/><polygon class="cls-22" points="290 140.26 284.18 139.84 284.21 139.35 290.03 139.78 290 140.26"/><polygon class="cls-22" points="303.32 139.97 314.87 139.5 314.86 139.15 303.31 139.62 303.32 139.97"/><polygon class="cls-22" points="316.4 139.25 323.99 138.94 323.98 138.44 316.38 138.75 316.4 139.25"/><polygon class="cls-18" points="278.85 140.38 274.87 139.67 275.23 137.28 279.22 137.99 278.85 140.38"/><polygon class="cls-18" points="281.42 138.45 285.45 138.75 285.3 141.17 281.27 140.87 281.42 138.45"/><polygon class="cls-18" points="288.01 138.99 292.05 139.1 291.99 141.53 287.95 141.42 288.01 138.99"/><polygon class="cls-18" points="300.71 138.8 304.74 138.64 304.83 141.06 300.79 141.22 300.71 138.8"/><polygon class="cls-18" points="307.49 138.32 311.52 138.16 311.61 140.58 307.57 140.75 307.49 138.32"/><polygon class="cls-18" points="314.21 137.97 318.23 137.56 318.44 139.97 314.42 140.39 314.21 137.97"/><line class="cls-10" x1="272.04" y1="118.06" x2="296.09" y2="136.33"/><path class="cls-16" d="m273.59,111.34c-2.89,0-2.89,4.85,0,4.85s2.89-4.85,0-4.85Z"/><path class="cls-16" d="m267,118.23c-2.89,0-2.89,4.85,0,4.85s2.89-4.85,0-4.85Z"/><path class="cls-16" d="m276.57,118.79c-2.89,0-2.89,4.85,0,4.85s2.89-4.85,0-4.85Z"/><path class="cls-16" d="m325.97,109.67c-2.89,0-2.89,4.85,0,4.85s2.89-4.85,0-4.85Z"/><path class="cls-16" d="m320.1,116.01c-2.89,0-2.89,4.85,0,4.85s2.89-4.85,0-4.85Z"/><path class="cls-16" d="m329.16,116.23c-2.89,0-2.89,4.85,0,4.85s2.89-4.85,0-4.85Z"/><path class="cls-14" d="m281.16,116.23c-.35-3.17-3.48-5.01-4.04-5.33-4.99-2.93-13.33-1.07-14.81,4.36-1.15,4.2,2.01,9.76,6.28,11.15,6.13,2,13.13-5.03,12.57-10.18Z"/><path class="cls-14" d="m316.25,114.85c.35-3.17,3.48-5.01,4.04-5.33,4.99-2.93,13.33-1.07,14.81,4.36,1.15,4.2-2.01,9.76-6.28,11.15-6.13,2-13.13-5.03-12.57-10.18Z"/><path d="m386.17,99.71c3.84-4.03,5.69-10.03,4.44-15.74-1.34-6.15-6.24-10.78-11.91-12.24,2.76-6.22,3.82-13.2-2.04-18.17-5.52-4.67-12.74-6.48-19.71-5.91-1.03-6.22-7.5-9.51-13.33-10.72-3.12-.65-6.51-.9-9.49.5-1.43.67-2.58,1.65-3.54,2.96-.4.55-.74,1.15-1.12,1.72-.78,1.21-.78,1.3-2.01.62-1.69-.93-3.28-2.69-4.82-3.9-1.61-1.27-3.26-2.49-5.04-3.49-3.11-1.74-6.48-2.77-10.02-2.8-5.55-.05-10.76,2.21-14.76,6.05-3.33-5.83-9.04-9.87-15.65-10.51-7.21-.7-14.36,3.29-18.36,9.53-6.88-2.31-14.68-3.5-20.8,1.46-3.85,3.12-5.64,8.48-4.41,13.16-5.76-.19-12.24.09-16.56,3.74-3.45,2.92-4.56,8.5-2.17,12.22-3.89,4.5-7.24,10.1-6.52,16.36.5,4.39,2.9,8.42,6.47,10.37-3.85,4.92-7.57,10.84-6.72,17.19.77,5.74,5.71,7.07,10.35,6.44-.71,2.43-1.55,4.82-1.17,7.43.56,3.85,3.5,6.18,6.7,7.64,5.21,2.38,11.23,2.3,16.39-.07.72,2.59,2.32,4.79,4.65,6.22-.06,3.47.47,6.93,2.15,9.93,2.87,5.1,8.25,6.99,13.28,8.5,6.15,1.85,12.44,3.09,18.79,3.83,12.29,1.43,24.78.67,36.87-2.08,6.16-1.4,12.21-3.35,18.07-5.83,4.96-2.11,9.94-4.41,14.2-7.92,4.05-3.34,7.23-7.86,7.93-13.32,3.14,1.53,7.04,2.1,10.24,2.09,3.51,0,7.28-1.08,9.17-4.46.99-1.78,1.35-3.94.91-5.88,5.7-2.36,11.22-5.86,13.13-12.4,1.4-4.79-.16-9.76-3.6-12.53Zm-2.38,13.44c-2.58,4.16-7.28,5.97-11.55,7.48-1.65.59-2.69,3.1-1.12,4.48,1.09.95.67,2.51-.33,3.42-1.47,1.35-4.01,1.14-5.8,1.02-2.32-.15-7.71-.62-9.04-3.47-.09-.38-.18-.75-.29-1.12-.02-.32-.01-.65.05-1.01.27-1.51-.57-2.63-1.63-3.11-.45-.96-.95-1.9-1.48-2.81,3.58.46,7.22-.06,10.62-1.86,6.93-3.68,9.84-11.4,8.84-19.42-.91-7.33-4.23-15.16-10.33-19.04-5.52-3.52-12.99-3.1-17.54,1.99-2.47,2.76,1.43,6.98,3.9,4.22,3.31-3.7,8.76-3.11,12.26,0,3.69,3.3,5.74,8.78,6.31,13.82.66,5.82-1.48,11.11-6.63,13.46-5.04,2.3-10.54.62-14.97-2.39-3.02-2.05-5.79,3.11-2.79,5.15.57.39,1.15.74,1.74,1.08.1.27.24.54.43.8,3.07,4.24,6.69,9.44,6.52,15.11-.14,4.77-3.17,8.49-6.62,11.11-8.01,6.08-18.35,9.37-27.79,11.7-10.16,2.5-20.61,3.44-31.01,2.85-5.24-.3-10.44-.99-15.59-2.09-4.74-1.02-10.06-2.03-14.39-4.47-5.15-2.91-5.5-8.89-4.65-14.49.98-6.47,3.13-12.6,6.2-18.23.16-.3.27-.59.33-.88,1.09-2.33-1.27-5.7-3.8-3.98-4.43,3.01-9.93,4.69-14.97,2.39-5.15-2.35-7.29-7.64-6.63-13.46.57-5.04,2.62-10.53,6.31-13.82,3.5-3.12,8.95-3.71,12.26,0,2.47,2.77,6.37-1.45,3.9-4.22-4.55-5.09-12.02-5.51-17.54-1.99-6.1,3.89-9.42,11.71-10.33,19.04-.99,8.02,1.92,15.73,8.84,19.42,4.38,2.33,9.17,2.51,13.69,1.23-1.58,3.92-2.77,8.03-3.47,12.24-.58-1-.85-2.2-.68-3.37.3-2.05-1.71-4.51-3.73-3.03-4.27,3.13-9.68,4.06-14.61,2.11-2.58-1.02-4.82-2.53-4.25-5.72.51-2.85,1.63-5.45,1.92-8.36.16-1.65-1.77-3.15-3.22-2.58-1.7.67-3.58,1.29-5.43,1.09-2.6-.28-2.83-2.31-2.36-4.73,1.03-5.22,4.59-9.44,7.82-13.33,1.44-1.74.49-4.51-1.8-4.57-3.9-.12-6.22-4.65-6-8.39.29-4.94,3.73-9.05,6.9-12.37,1.17-1.23.88-3.32-.51-4.21-1.26-.8-1.28-2.53-.79-3.87.74-2.03,2.83-2.96,4.69-3.46,4.58-1.23,9.75-.92,14.43-.71,2.23.1,3.31-2.98,1.8-4.57-3.61-3.8-.66-9.32,3.29-11.17,5.21-2.44,11.04-.5,16.12,1.37,1.02.37,2.37-.24,2.87-1.23,2.78-5.51,8.32-9.11,14.31-8.8,5.9.31,11.27,4.77,13.27,10.56.79,2.3,3.31,2.5,4.65.64,3.36-4.68,9.15-7.16,14.65-6.62,6.86.68,11.05,6.44,16.6,9.91,2.27,1.42,4.85,1.13,6.71-.86,1.99-2.15,2.48-4.79,5.7-5.21,4.21-.54,15.01,1.84,14.01,8.14-.33,2.1,1.11,3.68,3.13,3.3,5.91-1.12,12.15.12,17.18,3.6,5.94,4.1,3.11,10.48.19,15.73-.97,1.74.26,4.06,2.19,4.03,5.02-.07,9.87,3.49,10.98,8.78,1.06,5.03-1.58,10.18-5.77,12.56-2.46,1.39-.99,4.68,1.28,4.99,4.72.64,4.51,7.06,2.56,10.2Z"/><rect class="cls-3" x="260.24" y="80.5" width="32.03" height="25.72"/><rect class="cls-3" x="301.41" y="80.5" width="32.03" height="25.72"/><path d="m311.54,105.68c-1.29.43-2.84.72-4.33.66.39.31.76.65,1.11,1.01-.56-.31-1.15-.59-1.77-.84-1.44-1.36-2.97-2.64-4.64-3.77-.04-.16-.07-.33-.08-.5,0-.03.01-.06.01-.09.02-.31.02-.62.03-.93.07-.4.2-.8.4-1.18.07-.12.14-.23.21-.33-.2,0-.4-.02-.6-.06-.03-2.71-.3-5.39-.66-8.07,1.41-1.63,3.17-2.97,5.21-3.79,3.65-1.46,6.89,0,9.61,2.42,2.92,2.6,4.44,5.78,2.64,9.44-1.39,2.82-4.07,5.01-7.14,6.03Z"/><path d="m329.96,86.22c-2.98-4.63-8.21-6.58-13.06-8.17-3.13-1.03-4.47,4.14-1.35,5.17,3.74,1.23,8.27,2.6,10.42,6.37,2.28,4,1.57,9.8,1.65,14.29.07,3.44,5.15,3.46,5.08,0-.11-5.82.5-12.59-2.75-17.65Z"/><path d="m272.13,78.54c-3.45,2.43-6.83,5.32-8.7,9.25-2.1,4.44-2.78,9.74-3.91,14.5-.76,3.18,4.03,4.53,4.78,1.35.97-4.08,1.64-8.46,3.06-12.41,1.3-3.6,4.26-6.19,7.27-8.31,2.62-1.84.14-6.24-2.5-4.39Z"/><path d="m282.02,105.87c1.29.43,2.84.72,4.33.66-.39.31-.76.65-1.11,1.01.56-.31,1.15-.59,1.77-.84,1.44-1.36,2.97-2.64,4.64-3.77.04-.16.07-.33.08-.5,0-.03-.01-.06-.01-.09-.02-.31-.02-.62-.03-.93-.07-.4-.2-.8-.4-1.18-.07-.12-.14-.23-.21-.33.2,0,.4-.02.6-.06.03-2.71.3-5.39.66-8.07-1.41-1.63-3.17-2.97-5.21-3.79-3.65-1.46-6.89,0-9.61,2.42-2.92,2.6-4.44,5.78-2.64,9.44,1.39,2.82,4.07,5.01,7.14,6.03Z"/><path d="m313.67,115.7c-1.73-6.38-11.85-7.85-18.21-8.08-.61-.02-1.11.11-1.49.35-3.81-.16-7.76-.06-10.91,2.02-2.6,1.72-4.13,4.49-3.23,7.29,2.03,6.29,12.76,8.1,19.2,8.46,3.77.21,7.81-.19,10.89-2.2,2.75-1.8,4.56-4.84,3.75-7.83Zm-7.19,4.65c-2.15,1.21-4.98,1.22-7.45,1.08-4.27-.24-10.4-1.13-13.4-4-1.66-1.59-.93-3.39,1.11-4.4,2.3-1.14,5.29-.86,7.84-.73.63.03,1.13-.11,1.52-.35,3.88.18,10.05.81,12.21,3.8,1.23,1.69-.06,3.61-1.82,4.6Z"/><path class="cls-7" d="m340.57,149.04c-.96-.46-2.7,1.94-6.65,3.73-4.89,2.22-9.52,1.84-15.32,1.22.09.54.03,1.11-.25,1.63-.59,1.1-2.05,1.58-3.07.87-.09-.06-.18-.12-.27-.18-.21.18-.47.33-.78.42-7.34,2.25-14.3,2.49-21.79,1.05-4.24-.81-8.28-1.21-12.59-1.25-4.22-.04-8.44-.17-12.51-1.47-.86-.28-1.34-.92-1.5-1.64-3.7-.35-7.64-.82-11.82-1.45-1.56,2.49-2.79,5.61-1.76,8.68,5.07,15.2,63.52,23.49,82.11,3.7,5.04-5.37,7.94-14.49,6.21-15.32Z"/><path class="cls-12" d="m286.87,87.68c-.08-1.02-.66-2.02-1.56-2.33-1.18-.93-2.83-1.08-4.16-.25-1.71,1.06-2.6,3.55-2.13,5.61.16.7.61,1.38,1.18,1.76.24.16.52.27.79.34.14.02.28.04.42.06.37.17.95.47.96.48.56.14,1.19.12,1.74-.07,2.28-.76,2.94-3.28,2.75-5.59Z"/><path class="cls-12" d="m321.05,87.58c-.08-1.02-.66-2.02-1.56-2.33-1.18-.93-2.83-1.08-4.16-.25-1.71,1.06-2.6,3.55-2.13,5.61.16.7.61,1.38,1.18,1.76.24.16.52.27.79.34.14.02.28.04.42.06.37.17.95.47.96.48.56.14,1.19.12,1.74-.07,2.28-.76,2.94-3.28,2.75-5.59Z"/><path class="cls-12" d="m279.04,95c-2.89,0-2.89,4.85,0,4.85s2.89-4.85,0-4.85Z"/><path class="cls-12" d="m312.39,93.89c-2.89,0-2.89,4.85,0,4.85s2.89-4.85,0-4.85Z"/><path class="cls-11" d="m269.45,97.4c-.23-3.41-.32-6.81-.28-10.23.03-3.12-4.45-3.12-4.49,0-.04,3.41.06,6.82.28,10.23.2,3.09,4.69,3.12,4.49,0Z"/><path class="cls-11" d="m309.73,97.38c-.23-3.41-.32-6.81-.28-10.23.03-3.12-4.45-3.12-4.49,0-.04,3.41.06,6.82.28,10.23.2,3.09,4.69,3.12,4.49,0Z"/><path class="cls-12" d="m296.83,112.77c-1.55,0-3.1.02-4.65.07-1.33.04-2.71-.06-3.5,1.02-1.1,1.52,1.18,2.92,2.65,2.15.77-.08,1.65,0,2.4-.02,1.03-.02,2.07-.03,3.1-.03,2.44,0,2.44-3.2,0-3.19Z"/><rect x="253.33" y="78.9" width="4.94" height="4.36"/><rect x="333.22" y="78.9" width="12.57" height="4.36"/><rect x="293.73" y="96.35" width="7.63" height="3.39"/><path class="cls-1" d="m234.59,60.06c4.3,1.32,6.79,6.15,5.57,10.79-.98,3.71-4.56,5.87-7.99,4.82-2.75-.84-4.35-3.94-3.57-6.91.62-2.38,2.92-3.76,5.12-3.08,1.76.54,2.78,2.52,2.28,4.42-.4,1.52-1.87,2.4-3.27,1.97-1.13-.35-1.78-1.61-1.46-2.83.26-.97,1.19-1.54,2.1-1.26.72.22,1.14,1.03.94,1.81-.16.62-.76.98-1.34.81"/><path class="cls-1" d="m366.02,72.85c-4.42.69-8.53-2.62-9.17-7.4-.51-3.82,1.94-7.37,5.48-7.92,2.83-.44,5.46,1.68,5.87,4.73.33,2.45-1.24,4.72-3.51,5.07-1.81.28-3.49-1.07-3.76-3.03-.21-1.57.79-3.02,2.24-3.24,1.16-.18,2.24.69,2.4,1.94.13,1-.51,1.93-1.44,2.08-.74.12-1.43-.44-1.54-1.24-.09-.64.33-1.24.92-1.33"/><path class="cls-1" d="m258.77,49.18c.39,4.81-2.9,9.05-7.35,9.47-3.56.34-6.7-2.5-7.02-6.35-.25-3.08,1.86-5.79,4.7-6.06,2.28-.22,4.29,1.6,4.49,4.06.16,1.97-1.19,3.71-3.01,3.88-1.46.14-2.75-1.03-2.87-2.6-.1-1.26.76-2.37,1.93-2.48.93-.09,1.76.66,1.84,1.66.07.81-.49,1.52-1.23,1.59-.6.06-1.12-.42-1.18-1.07"/><path class="cls-1" d="m310.09,41.83c4.47-.27,8.32,3.43,8.61,8.27.23,3.87-2.49,7.19-6.07,7.41-2.86.18-5.33-2.19-5.51-5.29-.14-2.48,1.59-4.6,3.88-4.74,1.83-.11,3.41,1.4,3.53,3.39.09,1.59-1.02,2.94-2.48,3.03-1.17.07-2.18-.9-2.26-2.17-.06-1.01.65-1.88,1.59-1.94.75-.05,1.4.57,1.44,1.39.04.65-.42,1.21-1.02,1.24"/><path class="cls-1" d="m350.46,46.39c1.46,4.56-.78,9.54-5,11.12-3.38,1.26-7.06-.67-8.23-4.32-.94-2.92.5-6.1,3.2-7.11,2.16-.81,4.52.43,5.27,2.77.6,1.87-.32,3.91-2.05,4.55-1.38.52-2.89-.28-3.37-1.77-.38-1.2.2-2.5,1.31-2.91.89-.33,1.85.18,2.16,1.13.25.77-.13,1.6-.84,1.87-.57.21-1.19-.11-1.38-.72"/><path class="cls-1" d="m278,37.95c4.37-1.03,8.68,1.95,9.63,6.67.76,3.77-1.45,7.5-4.94,8.32-2.79.66-5.55-1.25-6.17-4.27-.49-2.41.93-4.8,3.16-5.33,1.79-.42,3.55.8,3.95,2.73.31,1.55-.59,3.07-2.02,3.41-1.14.27-2.28-.51-2.53-1.75-.2-.99.38-1.97,1.3-2.18.73-.17,1.46.33,1.62,1.12.13.63-.24,1.26-.83,1.4"/><path class="cls-1" d="m253.4,77.61c-4.47-.17-7.96-4.22-7.8-9.05.13-3.86,3.13-6.88,6.7-6.74,2.86.11,5.09,2.7,4.99,5.79-.08,2.47-2,4.4-4.29,4.31-1.83-.07-3.26-1.73-3.19-3.71.05-1.58,1.28-2.82,2.74-2.76,1.17.05,2.09,1.11,2.04,2.37-.03,1.01-.82,1.8-1.76,1.77-.75-.03-1.33-.71-1.31-1.52.02-.65.52-1.15,1.12-1.13"/><path class="cls-1" d="m230.35,84.16c-2.48,4.02-7.5,5.1-11.22,2.42-2.97-2.14-3.78-6.48-1.8-9.7,1.59-2.57,4.8-3.26,7.18-1.55,1.9,1.37,2.42,4.15,1.15,6.21-1.02,1.64-3.07,2.09-4.6.99-1.22-.88-1.55-2.66-.74-3.97.65-1.05,1.97-1.34,2.94-.64.78.56.99,1.7.47,2.54-.42.67-1.26.86-1.88.41-.5-.36-.63-1.09-.3-1.63"/><path class="cls-1" d="m337.17,60.41c-2.48,4.02-7.5,5.1-11.22,2.42-2.97-2.14-3.78-6.48-1.8-9.7,1.59-2.57,4.8-3.26,7.18-1.55,1.9,1.37,2.42,4.15,1.15,6.21-1.02,1.64-3.07,2.09-4.6.99-1.22-.88-1.55-2.66-.74-3.97.65-1.05,1.97-1.34,2.94-.64.78.56.99,1.7.47,2.54-.42.67-1.26.86-1.88.41-.5-.36-.63-1.09-.3-1.63"/><path class="cls-1" d="m348.27,60.06c4.17,1.73,6.26,6.78,4.66,11.29-1.28,3.61-5.02,5.41-8.36,4.02-2.67-1.11-4.01-4.34-2.98-7.22.82-2.31,3.22-3.46,5.35-2.58,1.71.71,2.56,2.78,1.91,4.62-.52,1.48-2.06,2.21-3.42,1.65-1.09-.45-1.64-1.78-1.22-2.96.34-.95,1.32-1.42,2.19-1.06.7.29,1.05,1.14.78,1.89-.21.6-.84.91-1.4.68"/><path class="cls-1" d="m274.8,58.95c-3.8,2.54-8.79,1.26-11.14-2.84-1.88-3.29-.94-7.59,2.11-9.62,2.43-1.62,5.62-.81,7.13,1.82,1.2,2.1.6,4.86-1.35,6.16-1.56,1.04-3.6.52-4.56-1.16-.77-1.35-.38-3.11.86-3.94,1-.66,2.3-.33,2.92.75.49.86.25,1.99-.55,2.52-.64.43-1.47.21-1.87-.48-.32-.55-.16-1.27.35-1.61"/><path class="cls-1" d="m305.75,56.04c-2.48,4.02-7.5,5.1-11.22,2.42-2.97-2.14-3.78-6.48-1.8-9.7,1.59-2.57,4.8-3.26,7.18-1.55,1.9,1.37,2.42,4.15,1.15,6.21-1.02,1.64-3.07,2.09-4.6.99-1.22-.88-1.55-2.66-.74-3.97.65-1.05,1.97-1.34,2.94-.64.78.56.99,1.7.47,2.54-.42.67-1.26.86-1.88.41-.5-.36-.63-1.09-.3-1.63"/><path class="cls-1" d="m383.98,92.04c-3.23,3.34-8.35,3.22-11.44-.26-2.47-2.79-2.39-7.21.2-9.89,2.07-2.14,5.34-2.06,7.32.17,1.58,1.78,1.53,4.62-.13,6.33-1.32,1.37-3.42,1.32-4.69-.11-1.01-1.14-.98-2.95.08-4.05.85-.88,2.19-.84,3,.07.65.73.63,1.89-.05,2.59-.54.56-1.4.54-1.92-.04-.41-.47-.4-1.21.03-1.66"/><path class="cls-1" d="m370.13,127.58c-2.91,1.9-7.91,1.4-11.16-1.11-2.61-2.01-2.83-4.87-.51-6.39,1.86-1.22,5.06-.9,7.15.71,1.67,1.29,1.81,3.12.32,4.09-1.19.78-3.24.57-4.57-.46-1.07-.82-1.16-2-.21-2.62.76-.5,2.07-.37,2.93.29.68.53.74,1.28.13,1.68-.49.32-1.33.24-1.87-.19-.44-.34-.48-.82-.08-1.07"/><path class="cls-1" d="m374.44,100.82c3.74-.78,7.81,1.92,9.08,6.05,1.02,3.3-.59,6.48-3.58,7.11-2.4.5-5-1.23-5.81-3.87-.65-2.11.38-4.15,2.29-4.55,1.53-.32,3.2.79,3.72,2.48.42,1.35-.24,2.66-1.47,2.91-.98.21-2.05-.5-2.38-1.59-.27-.87.15-1.7.94-1.86.63-.13,1.31.32,1.52,1.01.17.55-.1,1.09-.6,1.19"/><path class="cls-1" d="m234.89,127.05c-2.5,2.59-6.52,2.51-8.96-.17-1.96-2.15-1.92-5.57.09-7.64,1.6-1.66,4.17-1.61,5.74.11,1.25,1.37,1.23,3.56-.06,4.89-1.03,1.06-2.67,1.03-3.67-.07-.8-.88-.79-2.28.04-3.13.66-.68,1.71-.66,2.35.05.51.56.5,1.46-.02,2-.42.43-1.09.42-1.5-.03-.33-.36-.32-.93.01-1.28"/><path class="cls-1" d="m219.11,99.13c3.27.39,5.63,3.57,5.27,7.11-.28,2.83-2.63,4.87-5.25,4.55-2.09-.25-3.6-2.29-3.38-4.55.18-1.81,1.69-3.11,3.36-2.91,1.34.16,2.31,1.46,2.16,2.91-.12,1.16-1.08,1.99-2.15,1.86-.86-.1-1.48-.94-1.38-1.86.07-.74.69-1.28,1.38-1.19.55.07.94.6.88,1.19-.05.47-.44.82-.88.76"/><path d="m330.84,128.1c-2.73-.5-6.09-2.48-7.81-4.89-.75-1.04-1.92-1.58-3.07-.87-.95.58-1.54,2.28-.81,3.32.6.84,1.3,1.65,2.07,2.41-7.58,1.39-15.23,2.18-22.92,2.34-6.93.14-13.83-.63-20.72-1.43.42-.32.84-.65,1.26-1,2.26-1.88.02-6.09-2.27-4.19-2.98,2.48-5.83,4.71-9.77,3.64-2.8-.76-4,3.91-1.19,4.67,1.67.45,3.22.53,4.69.31.35.4.84.68,1.46.75,7.28.79,14.55,1.79,21.86,2.04-.09,3.43-.1,6.86-.02,10.3,0,.09,0,.18.02.27-7.81-.11-15.6-2.35-23.12-4.38-2.8-.76-4,3.92-1.19,4.67,9.09,2.46,18.64,5.22,28.08,4.43,8.56-.71,17.9-1.34,25.94-4.79,2.65-1.14,1.5-5.83-1.19-4.67-7.48,3.21-16.05,3.9-24.05,4.56,0-.03,0-.06,0-.09-.08-3.42-.07-6.83.02-10.25.34,0,.69,0,1.03-.02,11.86-.31,18.95-2.03,23.28-2.49,0,0,.45-.05,3.65-.72.07-.01.22-.05.41-.13.05-.02.11-.05.16-.07.99.44,1.99.76,3,.95,2.83.52,4.04-4.15,1.19-4.67Z"/><path class="cls-2" d="m277.96,63.38c-1.81,1.35-3.75,2.61-5.41,4.17-1.5,1.41-2.58,3.3-3.58,5.13-1.47,2.69,2.41,5.14,3.88,2.45.81-1.49,1.64-3.01,2.88-4.15,1.38-1.27,3.01-2.3,4.5-3.41,2.36-1.76.12-5.97-2.27-4.19Z"/><path class="cls-2" d="m329.65,71.74c-3.58-3.56-7.53-6.59-11.86-9-2.56-1.43-4.84,2.75-2.27,4.19,3.99,2.23,7.65,4.95,10.95,8.24,2.12,2.11,5.3-1.31,3.17-3.43Z"/></g><g><path class="cls-5" d="m54.19,119.41l-6.51,21.63-4.86-9.77-7.14,5.38-14.21-6.42,1.1-11.32h-5.74l-4.83-4.37-1.48-5.85,9.78-14.35-8.29-6.89,6.46-16.35-.46-7.93,7.38-7.43h12.84l.99-10.9,10.14-4.95,13.32,1.41,12.96-9.34,14.43,2.26,2.42,9.61,5.28-2.99s7.84-4.92,8.76-4.92,7.49.6,7.49.6c0,0,8.5,3.83,9.5,4.09s6.07,3.73,6.07,3.73l6.11,1.04,4.04-4.51,6.93-.71,7.83,2.2,6.46,9.91,11.92,1.3,10.42,8.47-1.59,12.53,11.11,7.83.85,13.72-3.38,4.92-2.75,1.14,6.13,6.52-1.82,9.41-9.39,8-2.54,2.59-1.43,5.34-8.3.99-7.35-2.21-106.54-14.14-2.07.75Z"/><path class="cls-23" d="m55.34,85.46c-2.73.79-4.34-3.29-8.76-3.47-5.31-.21-9.42,5.45-10.14,6.44-1.19,1.64-2.18,5.06-4.15,11.89-1.35,4.69-1.61,6.37-1.38,8.42.13,1.19.5,4.43,2.77,6.94,2.13,2.35,4.8,2.72,10.14,3.47,3.57.5,5.83.81,8.76,0,2.37-.66,3.52-1.6,4.15-.99.48.46.41,1.59-2.31,8.92-1.71,4.61-1.9,4.77-2.31,6.44-.63,2.61-.74,4.66-.92,7.93-.21,3.84-.31,5.76,0,6.94,1.23,4.63,5.42,7.06,6.92,7.93,2.11,1.23,4.15,1.82,9.68,2.48,6.81.8,10.76.73,15.22.99,7.9.46,9.28,1.5,14.75,1.98,7.23.63,15.14-.84,23.05-2.97,10.19-2.75,8.13-3.84,17.06-5.95,5.4-1.27,9.07-1.56,12.45-4.95.34-.35.01-.05,5.07-6.44,2.62-3.31,3.2-4.02,3.69-5.45.99-2.92.46-5.58,0-7.93-.36-1.83-1.07-5.41-3.69-8.42-2.36-2.71-4.8-3.3-4.61-3.96.19-.65,2.5-.2,8.3,0,2.55.09,3.86.13,5.53,0,4.04-.31,6.14-.47,7.84-1.98,1.84-1.65,2.19-4,2.77-7.93.29-1.97.84-5.98-.46-10.9-.56-2.11-1.45-5.48-4.15-8.42-.51-.56-.62-.59-5.53-3.96-5.35-3.67-6.15-4.28-7.38-3.96-1.15.3-1.24,1.03-4.61,2.97-1.72.99-2.07,1.01-2.31.99-2.45-.2-3.87-6-4.15-6.94-4.3-14.46-79.54-22.29-86.69-.5-1.05,3.19-1.44,9.48-4.61,10.41Z"/><polygon class="cls-9" points="100.15 111.73 90.06 111.73 87.81 114.54 85.45 119.41 94.53 126.09 109.68 126.09 116.24 118.91 109.05 113.24 100.15 111.73"/><polyline class="cls-25" points="94.03 82.39 74.32 83.55 66.15 93.91 64.88 107.87 95.64 109.83 95.57 82.39 94.03 82.39"/><polygon class="cls-25" points="132.53 89.43 125.75 82.68 104.97 82.39 104.97 108.68 135.68 108.68 132.53 89.43"/><line class="cls-10" x1="74.79" y1="120.78" x2="99.5" y2="139.45"/><path class="cls-16" d="m76.38,113.91c-2.97,0-2.97,4.95,0,4.95s2.97-4.95,0-4.95Z"/><path class="cls-16" d="m69.61,120.95c-2.97,0-2.97,4.95,0,4.95s2.97-4.95,0-4.95Z"/><path class="cls-16" d="m79.44,121.52c-2.97,0-2.97,4.95,0,4.95s2.97-4.95,0-4.95Z"/><path class="cls-16" d="m130.19,112.21c-2.97,0-2.97,4.95,0,4.95s2.97-4.95,0-4.95Z"/><path class="cls-16" d="m124.17,118.68c-2.97,0-2.97,4.95,0,4.95s2.97-4.95,0-4.95Z"/><path class="cls-16" d="m133.47,118.91c-2.97,0-2.97,4.95,0,4.95s2.97-4.95,0-4.95Z"/><path class="cls-14" d="m84.16,118.91c-.36-3.24-3.58-5.12-4.15-5.45-5.13-2.99-13.69-1.09-15.22,4.46-1.18,4.29,2.07,9.97,6.46,11.4,6.29,2.04,13.49-5.14,12.91-10.41Z"/><path class="cls-14" d="m120.21,117.49c.36-3.24,3.58-5.12,4.15-5.45,5.13-2.99,13.69-1.09,15.22,4.46,1.18,4.29-2.07,9.97-6.46,11.4-6.29,2.04-13.49-5.14-12.91-10.41Z"/><path d="m192.04,102.02c3.94-4.12,5.84-10.26,4.57-16.09-1.37-6.29-6.41-11.02-12.23-12.51,2.84-6.36,3.93-13.49-2.1-18.58-5.67-4.78-13.09-6.63-20.25-6.04-1.06-6.36-7.7-9.72-13.69-10.96-3.21-.66-6.69-.92-9.74.51-1.47.69-2.65,1.69-3.64,3.03-.42.57-.76,1.17-1.15,1.76-.81,1.24-.8,1.33-2.06.63-1.74-.95-3.37-2.75-4.95-3.98-1.65-1.3-3.35-2.55-5.17-3.56-3.2-1.78-6.66-2.84-10.29-2.87-5.7-.05-11.05,2.26-15.17,6.18-3.42-5.96-9.28-10.08-16.08-10.74-7.41-.72-14.76,3.37-18.86,9.74-7.07-2.36-15.08-3.58-21.37,1.49-3.96,3.19-5.79,8.66-4.53,13.45-5.92-.19-12.57.09-17.01,3.82-3.55,2.98-4.68,8.69-2.23,12.49-3.99,4.6-7.44,10.32-6.7,16.72.52,4.48,2.98,8.61,6.65,10.6-3.95,5.03-7.77,11.08-6.9,17.57.79,5.87,5.87,7.22,10.63,6.58-.73,2.48-1.59,4.93-1.2,7.6.57,3.94,3.6,6.31,6.89,7.81,5.35,2.44,11.54,2.35,16.84-.07.74,2.65,2.39,4.9,4.77,6.36-.06,3.55.48,7.08,2.21,10.15,2.94,5.21,8.47,7.15,13.64,8.69,6.32,1.89,12.78,3.16,19.3,3.91,12.62,1.46,25.46.69,37.87-2.12,6.33-1.43,12.55-3.42,18.57-5.96,5.09-2.15,10.21-4.51,14.59-8.1,4.16-3.42,7.43-8.03,8.15-13.62,3.23,1.56,7.24,2.14,10.52,2.14,3.61,0,7.48-1.1,9.42-4.56,1.02-1.81,1.39-4.03.93-6.01,5.86-2.41,11.53-5.99,13.48-12.67,1.44-4.9-.17-9.97-3.7-12.81Zm-2.45,13.74c-2.65,4.25-7.48,6.1-11.86,7.65-1.7.6-2.77,3.17-1.15,4.58,1.12.97.69,2.56-.34,3.5-1.51,1.38-4.12,1.16-5.96,1.05-2.39-.15-7.92-.63-9.29-3.54-.09-.38-.19-.77-.3-1.15-.02-.32-.01-.67.05-1.03.27-1.54-.59-2.69-1.67-3.18-.47-.98-.98-1.94-1.52-2.88,3.67.47,7.42-.06,10.91-1.91,7.12-3.76,10.1-11.65,9.08-19.85-.93-7.49-4.35-15.49-10.62-19.47-5.67-3.6-13.34-3.17-18.02,2.04-2.54,2.82,1.47,7.14,4.01,4.31,3.4-3.78,9-3.18,12.59,0,3.79,3.37,5.9,8.98,6.48,14.13.68,5.95-1.52,11.35-6.82,13.76-5.18,2.35-10.83.64-15.38-2.44-3.1-2.1-5.94,3.18-2.86,5.26.58.39,1.18.76,1.79,1.1.1.28.25.56.44.82,3.15,4.34,6.87,9.65,6.7,15.44-.14,4.87-3.25,8.68-6.8,11.36-8.23,6.21-18.85,9.58-28.55,11.95-10.44,2.56-21.17,3.51-31.86,2.91-5.38-.3-10.73-1.01-16.01-2.14-4.87-1.05-10.34-2.07-14.78-4.57-5.29-2.97-5.65-9.09-4.78-14.81,1-6.61,3.22-12.87,6.37-18.64.17-.3.28-.6.34-.9,1.12-2.38-1.3-5.83-3.91-4.06-4.55,3.08-10.2,4.79-15.38,2.44-5.29-2.4-7.49-7.81-6.82-13.76.59-5.15,2.69-10.76,6.48-14.13,3.59-3.19,9.19-3.79,12.59,0,2.54,2.83,6.55-1.49,4.01-4.31-4.68-5.21-12.35-5.63-18.02-2.04-6.27,3.98-9.68,11.97-10.62,19.47-1.02,8.2,1.97,16.08,9.08,19.85,4.5,2.38,9.42,2.56,14.07,1.25-1.62,4.01-2.84,8.21-3.57,12.51-.59-1.03-.87-2.25-.7-3.44.31-2.1-1.76-4.61-3.84-3.09-4.39,3.2-9.95,4.15-15.01,2.16-2.65-1.04-4.95-2.58-4.36-5.85.52-2.92,1.68-5.57,1.97-8.55.17-1.69-1.82-3.22-3.31-2.64-1.75.69-3.68,1.31-5.58,1.11-2.67-.28-2.91-2.37-2.42-4.84,1.06-5.33,4.72-9.65,8.03-13.63,1.48-1.78.5-4.61-1.85-4.68-4.01-.12-6.39-4.75-6.16-8.58.3-5.05,3.83-9.25,7.08-12.64,1.2-1.26.91-3.4-.53-4.3-1.29-.81-1.31-2.59-.81-3.95.76-2.07,2.91-3.03,4.82-3.54,4.71-1.26,10.01-.94,14.82-.73,2.29.1,3.4-3.05,1.85-4.68-3.71-3.88-.67-9.52,3.38-11.41,5.35-2.49,11.35-.51,16.56,1.4,1.05.38,2.43-.25,2.95-1.26,2.86-5.63,8.55-9.31,14.7-8.99,6.06.32,11.58,4.87,13.63,10.8.81,2.35,3.4,2.56,4.77.65,3.45-4.79,9.4-7.32,15.06-6.77,7.05.69,11.35,6.58,17.05,10.13,2.34,1.45,4.99,1.16,6.89-.88,2.04-2.19,2.55-4.9,5.86-5.32,4.32-.55,15.42,1.88,14.39,8.32-.34,2.15,1.14,3.76,3.21,3.37,6.07-1.14,12.48.13,17.65,3.68,6.11,4.2,3.19,10.72.19,16.08-.99,1.77.27,4.15,2.25,4.12,5.15-.08,10.14,3.56,11.28,8.98,1.09,5.14-1.62,10.41-5.92,12.84-2.52,1.43-1.02,4.79,1.32,5.1,4.85.65,4.63,7.22,2.63,10.43Z"/><rect class="cls-3" x="62.66" y="82.39" width="32.9" height="26.29"/><rect class="cls-3" x="104.97" y="82.39" width="32.9" height="26.29"/><path d="m115.37,108.13c-1.33.44-2.92.73-4.45.67.4.32.78.67,1.14,1.03-.58-.32-1.19-.6-1.82-.86-1.48-1.39-3.05-2.7-4.76-3.85-.04-.17-.07-.34-.08-.51,0-.03.01-.06.01-.09.02-.32.02-.64.03-.96.07-.41.2-.81.41-1.2.07-.12.14-.23.22-.34-.21,0-.41-.02-.62-.06-.03-2.77-.31-5.51-.68-8.25,1.45-1.67,3.26-3.04,5.36-3.88,3.75-1.5,7.08,0,9.88,2.47,3,2.65,4.56,5.91,2.71,9.65-1.43,2.89-4.18,5.12-7.33,6.17Z"/><path d="m134.3,88.23c-3.06-4.74-8.44-6.72-13.41-8.35-3.22-1.05-4.59,4.24-1.39,5.28,3.84,1.25,8.5,2.66,10.71,6.51,2.35,4.09,1.61,10.02,1.7,14.6.07,3.52,5.29,3.53,5.22,0-.12-5.94.51-12.87-2.83-18.04Z"/><path d="m74.88,80.38c-3.55,2.48-7.02,5.43-8.93,9.46-2.16,4.53-2.85,9.96-4.02,14.82-.78,3.25,4.14,4.63,4.92,1.38,1-4.17,1.69-8.65,3.14-12.68,1.33-3.68,4.38-6.33,7.47-8.49,2.69-1.88.14-6.38-2.57-4.48Z"/><path d="m85.04,108.32c1.33.44,2.92.73,4.45.67-.4.32-.78.67-1.14,1.03.58-.32,1.19-.6,1.82-.86,1.48-1.39,3.05-2.7,4.76-3.85.04-.17.07-.34.08-.51,0-.03-.01-.06-.01-.09-.02-.32-.02-.64-.03-.96-.07-.41-.2-.81-.41-1.2-.07-.12-.14-.23-.22-.34.21,0,.41-.02.62-.06.03-2.77.31-5.51.68-8.25-1.45-1.67-3.26-3.04-5.36-3.88-3.75-1.5-7.08,0-9.88,2.47-3,2.65-4.56,5.91-2.71,9.65,1.43,2.89,4.18,5.12,7.33,6.17Z"/><path d="m117.56,118.37c-1.78-6.53-12.17-8.02-18.71-8.26-.63-.02-1.14.11-1.53.35-3.92-.17-7.98-.06-11.21,2.06-2.67,1.75-4.25,4.59-3.32,7.45,2.08,6.43,13.11,8.28,19.72,8.65,3.87.21,8.02-.19,11.19-2.25,2.82-1.84,4.69-4.95,3.86-8Zm-7.39,4.76c-2.2,1.24-5.12,1.24-7.66,1.1-4.38-.25-10.69-1.15-13.77-4.09-1.71-1.63-.96-3.47,1.14-4.5,2.36-1.17,5.44-.87,8.05-.75.64.03,1.16-.11,1.56-.35,3.99.18,10.32.83,12.54,3.89,1.26,1.73-.06,3.69-1.87,4.7Z"/><path class="cls-7" d="m145.2,152.44c-.99-.47-2.78,1.98-6.83,3.81-5.03,2.27-9.78,1.88-15.74,1.25.1.55.03,1.13-.26,1.66-.61,1.12-2.11,1.61-3.15.89-.09-.06-.19-.12-.28-.18-.22.18-.48.33-.8.43-7.55,2.3-14.69,2.55-22.39,1.07-4.36-.83-8.5-1.24-12.93-1.27-4.33-.04-8.67-.17-12.85-1.51-.88-.28-1.37-.94-1.54-1.68-3.8-.36-7.85-.84-12.15-1.48-1.6,2.55-2.86,5.73-1.81,8.87,5.21,15.53,65.26,24.01,84.35,3.78,5.18-5.48,8.16-14.81,6.38-15.66Z"/><path class="cls-12" d="m90.03,89.73c-.09-1.04-.68-2.07-1.61-2.38-1.22-.95-2.91-1.11-4.28-.26-1.75,1.08-2.67,3.63-2.19,5.73.17.72.62,1.41,1.21,1.8.25.16.54.27.81.35.15.02.29.04.44.06.38.18.97.48.99.49.58.15,1.22.12,1.79-.07,2.34-.78,3.03-3.36,2.83-5.72Z"/><path class="cls-12" d="m125.14,89.63c-.09-1.04-.68-2.07-1.61-2.38-1.22-.95-2.91-1.11-4.28-.26-1.75,1.08-2.67,3.63-2.19,5.73.17.72.62,1.41,1.21,1.8.25.16.54.27.81.35.15.02.29.04.44.06.38.18.97.48.99.49.58.15,1.22.12,1.79-.07,2.34-.78,3.03-3.36,2.83-5.72Z"/><path class="cls-12" d="m81.98,97.21c-2.97,0-2.97,4.95,0,4.95s2.97-4.95,0-4.95Z"/><path class="cls-12" d="m116.24,96.07c-2.97,0-2.97,4.95,0,4.95s2.97-4.95,0-4.95Z"/><path class="cls-11" d="m72.13,99.66c-.23-3.48-.33-6.96-.29-10.45.04-3.19-4.58-3.19-4.61,0-.04,3.49.06,6.97.29,10.45.21,3.16,4.82,3.19,4.61,0Z"/><path class="cls-11" d="m113.51,99.64c-.23-3.48-.33-6.96-.29-10.45.04-3.19-4.58-3.19-4.61,0-.04,3.49.06,6.97.29,10.45.21,3.16,4.82,3.19,4.61,0Z"/><path class="cls-12" d="m100.26,115.37c-1.59,0-3.18.02-4.78.07-1.37.04-2.79-.06-3.59,1.04-1.13,1.55,1.22,2.98,2.72,2.2.79-.08,1.7,0,2.46-.02,1.06-.02,2.12-.03,3.18-.03,2.51,0,2.51-3.27,0-3.27Z"/><rect x="55.57" y="80.75" width="5.07" height="4.46"/><rect x="137.64" y="80.75" width="12.91" height="4.46"/><rect x="97.07" y="98.59" width="7.84" height="3.47"/><path class="cls-1" d="m36.31,61.5c4.42,1.35,6.98,6.29,5.73,11.03-1,3.8-4.68,6-8.21,4.92-2.83-.86-4.47-4.02-3.67-7.06.64-2.43,3-3.84,5.26-3.15,1.81.55,2.86,2.57,2.35,4.52-.41,1.56-1.92,2.46-3.36,2.02-1.16-.35-1.83-1.65-1.5-2.89.26-1,1.23-1.57,2.15-1.29.74.23,1.17,1.05.96,1.85-.17.64-.79,1.01-1.38.83"/><path class="cls-1" d="m171.34,74.57c-4.54.71-8.76-2.68-9.42-7.56-.53-3.91,1.99-7.53,5.63-8.1,2.91-.45,5.61,1.71,6.03,4.84.34,2.5-1.28,4.82-3.6,5.18-1.86.29-3.59-1.1-3.86-3.1-.22-1.6.82-3.08,2.31-3.32,1.19-.19,2.3.7,2.47,1.98.14,1.02-.52,1.97-1.48,2.12-.76.12-1.47-.45-1.58-1.27-.09-.66.33-1.26.94-1.36"/><path class="cls-1" d="m61.16,50.37c.4,4.91-2.98,9.25-7.55,9.68-3.66.35-6.89-2.56-7.21-6.49-.26-3.15,1.91-5.92,4.83-6.2,2.34-.22,4.41,1.64,4.61,4.15.16,2.01-1.22,3.79-3.09,3.97-1.5.14-2.82-1.05-2.95-2.66-.11-1.29.78-2.42,1.98-2.54.96-.09,1.81.67,1.89,1.7.07.82-.5,1.55-1.27,1.62-.61.06-1.16-.43-1.21-1.09"/><path class="cls-1" d="m113.88,42.86c4.59-.28,8.55,3.5,8.84,8.45.23,3.96-2.56,7.35-6.23,7.57-2.94.18-5.47-2.24-5.66-5.41-.15-2.53,1.64-4.7,3.99-4.85,1.88-.11,3.5,1.43,3.62,3.46.1,1.62-1.05,3.01-2.55,3.1-1.2.07-2.24-.92-2.32-2.21-.06-1.04.67-1.93,1.63-1.98.77-.05,1.43.59,1.48,1.42.04.66-.43,1.23-1.05,1.27"/><path class="cls-1" d="m155.35,47.53c1.5,4.66-.8,9.75-5.14,11.36-3.47,1.29-7.26-.69-8.46-4.42-.96-2.98.51-6.24,3.29-7.27,2.22-.83,4.65.44,5.41,2.83.61,1.91-.33,3.99-2.1,4.65-1.42.53-2.97-.28-3.46-1.81-.39-1.22.21-2.56,1.35-2.98.91-.34,1.9.18,2.22,1.16.25.78-.13,1.64-.86,1.91-.58.22-1.22-.12-1.42-.74"/><path class="cls-1" d="m80.92,38.9c4.48-1.05,8.92,2,9.9,6.82.78,3.86-1.49,7.66-5.08,8.51-2.87.67-5.71-1.28-6.33-4.36-.5-2.47.95-4.91,3.25-5.45,1.84-.43,3.65.82,4.05,2.79.32,1.58-.61,3.14-2.08,3.48-1.18.28-2.34-.52-2.59-1.79-.21-1.01.39-2.01,1.33-2.23.75-.18,1.5.34,1.66,1.14.13.65-.25,1.29-.85,1.43"/><path class="cls-1" d="m55.65,79.44c-4.59-.18-8.17-4.32-8.01-9.25.13-3.94,3.21-7.03,6.88-6.89,2.94.11,5.23,2.76,5.13,5.92-.08,2.52-2.06,4.5-4.41,4.41-1.88-.07-3.35-1.77-3.28-3.79.05-1.62,1.32-2.88,2.82-2.82,1.2.05,2.14,1.13,2.1,2.42-.03,1.03-.84,1.84-1.8,1.81-.77-.03-1.37-.72-1.34-1.55.02-.66.54-1.18,1.15-1.16"/><path class="cls-1" d="m31.96,86.13c-2.55,4.1-7.71,5.21-11.53,2.48-3.06-2.19-3.88-6.63-1.84-9.91,1.63-2.63,4.93-3.34,7.38-1.59,1.96,1.4,2.48,4.24,1.18,6.34-1.04,1.68-3.16,2.14-4.72,1.01-1.25-.9-1.59-2.71-.76-4.06.67-1.08,2.02-1.37,3.02-.65.8.57,1.02,1.74.48,2.6-.43.69-1.29.87-1.93.42-.51-.37-.65-1.11-.31-1.66"/><path class="cls-1" d="m141.7,61.85c-2.55,4.1-7.71,5.21-11.53,2.48-3.06-2.19-3.88-6.63-1.84-9.91,1.63-2.63,4.93-3.34,7.38-1.59,1.96,1.4,2.48,4.24,1.18,6.34-1.04,1.68-3.16,2.14-4.72,1.01-1.25-.9-1.59-2.71-.76-4.06.67-1.08,2.02-1.37,3.02-.65.8.57,1.02,1.74.48,2.6-.43.69-1.29.87-1.93.42-.51-.37-.65-1.11-.31-1.66"/><path class="cls-1" d="m153.1,61.5c4.29,1.77,6.43,6.93,4.79,11.54-1.31,3.69-5.16,5.53-8.59,4.11-2.74-1.13-4.11-4.44-3.06-7.38.84-2.36,3.3-3.54,5.5-2.63,1.76.72,2.63,2.84,1.96,4.73-.54,1.51-2.11,2.26-3.52,1.69-1.12-.46-1.69-1.82-1.25-3.02.34-.97,1.35-1.45,2.25-1.08.72.3,1.08,1.16.8,1.94-.22.62-.87.93-1.44.69"/><path class="cls-1" d="m77.63,60.36c-3.91,2.59-9.03,1.29-11.44-2.91-1.93-3.36-.96-7.76,2.16-9.84,2.5-1.66,5.78-.83,7.32,1.86,1.24,2.15.62,4.97-1.38,6.29-1.6,1.06-3.7.53-4.69-1.19-.79-1.38-.39-3.18.89-4.03,1.02-.68,2.37-.34,3,.76.51.88.25,2.03-.57,2.58-.66.43-1.51.22-1.92-.49-.32-.56-.16-1.3.36-1.65"/><path class="cls-1" d="m109.42,57.39c-2.55,4.1-7.71,5.21-11.53,2.48-3.06-2.19-3.88-6.63-1.84-9.91,1.63-2.63,4.93-3.34,7.38-1.59,1.96,1.4,2.48,4.24,1.18,6.34-1.04,1.68-3.16,2.14-4.72,1.01-1.25-.9-1.59-2.71-.76-4.06.67-1.08,2.02-1.37,3.02-.65.8.57,1.02,1.74.48,2.6-.43.69-1.29.87-1.93.42-.51-.37-.65-1.11-.31-1.66"/><path class="cls-1" d="m189.79,94.19c-3.32,3.41-8.58,3.29-11.75-.27-2.54-2.85-2.45-7.37.2-10.1,2.12-2.18,5.49-2.11,7.52.17,1.63,1.82,1.57,4.72-.13,6.47-1.36,1.4-3.51,1.35-4.81-.11-1.04-1.17-1-3.02.08-4.14.87-.89,2.25-.86,3.08.07.67.75.64,1.93-.05,2.65-.56.57-1.44.55-1.97-.05-.43-.48-.41-1.24.03-1.7"/><path class="cls-1" d="m175.56,130.51c-2.99,1.94-8.12,1.43-11.47-1.14-2.68-2.06-2.91-4.98-.52-6.54,1.91-1.24,5.2-.92,7.34.73,1.71,1.32,1.86,3.19.33,4.18-1.22.8-3.33.59-4.7-.47-1.1-.84-1.19-2.04-.21-2.68.78-.51,2.13-.38,3.01.3.7.54.76,1.31.14,1.71-.5.33-1.36.24-1.92-.19-.45-.34-.49-.84-.09-1.1"/><path class="cls-1" d="m179.99,103.16c3.85-.8,8.02,1.97,9.33,6.18,1.04,3.37-.61,6.63-3.68,7.27-2.46.51-5.13-1.26-5.97-3.96-.67-2.16.39-4.24,2.36-4.65,1.58-.33,3.29.81,3.82,2.53.43,1.38-.25,2.71-1.51,2.98-1.01.21-2.1-.52-2.44-1.62-.27-.88.16-1.74.97-1.91.65-.13,1.35.33,1.56,1.04.18.57-.1,1.11-.62,1.22"/><path class="cls-1" d="m36.63,129.97c-2.57,2.65-6.7,2.57-9.21-.18-2.01-2.2-1.97-5.69.09-7.81,1.65-1.69,4.29-1.64,5.89.11,1.29,1.4,1.26,3.64-.06,5-1.05,1.08-2.74,1.05-3.77-.07-.82-.9-.81-2.33.04-3.2.67-.69,1.76-.67,2.41.05.53.58.52,1.49-.02,2.05-.43.44-1.12.43-1.54-.03-.34-.37-.33-.95.01-1.31"/><path class="cls-1" d="m20.42,101.43c3.36.4,5.78,3.65,5.42,7.26-.29,2.89-2.71,4.97-5.39,4.65-2.15-.26-3.7-2.34-3.47-4.65.19-1.85,1.73-3.18,3.45-2.98,1.38.16,2.37,1.5,2.22,2.98-.12,1.18-1.11,2.04-2.21,1.91-.88-.1-1.52-.96-1.42-1.9.08-.76.71-1.3,1.41-1.22.56.07.97.61.91,1.22-.05.48-.45.83-.9.78"/><path class="cls-12" d="m122.07,96.26c-2.97,0-2.97,4.95,0,4.95s2.97-4.95,0-4.95Z"/><path class="cls-12" d="m87.25,96.26c-2.97,0-2.97,4.95,0,4.95s2.97-4.95,0-4.95Z"/><path class="cls-24" d="m74.54,103.12c-.86-.25-1.7.07-2.27.71-.08-.02-.15-.04-.16-.04l-1.59-.3c-.49-.09-.99-.05-1.43.12-.36-.33-.84-.53-1.44-.53-2.97,0-2.97,4.95,0,4.95.32,0,.6-.06.84-.16.23.2.5.34.8.4,1.18.22,2.47.63,3.66.55,1.52-.11,2.73-1.07,3.19-2.65.37-1.28-.44-2.7-1.61-3.05Z"/><path class="cls-24" d="m132.78,102.78c-.5,0-.91.14-1.24.38-.36-.32-.84-.53-1.44-.53-.88,0-1.5.44-1.86,1.06-.92.25-1.76.15-2.72-.28-1.15-.51-2.54.56-2.84,1.73-.36,1.43.46,2.53,1.61,3.05,1.83.82,4,.83,5.84.04.5-.21.94-.56,1.24-.99.35.3.82.49,1.39.49,2.97,0,2.97-4.95,0-4.95Z"/><path class="cls-13" d="m131.01,102.82c.44.06.68.55.57.89-.13.41-.57.57-1,.51-.14-.02-.41.13-.53.2-.17.1-.2.12-.18.26.06.39-.42.73-.82.73-.49,0-.76-.34-.82-.73-.18-1.26,1.61-2.02,2.77-1.86Z"/><path class="cls-13" d="m125.74,103.66c.44.06.68.55.57.89-.13.41-.57.57-1,.51-.14-.02-.41.13-.53.2-.17.1-.2.12-.18.26.06.39-.42.73-.82.73-.49,0-.76-.34-.82-.73-.18-1.26,1.61-2.02,2.77-1.86Z"/><path class="cls-13" d="m68.57,103.66c.44.06.68.55.57.89-.13.41-.57.57-1,.51-.14-.02-.41.13-.53.2-.17.1-.2.12-.18.26.06.39-.42.73-.82.73-.49,0-.76-.34-.82-.73-.18-1.26,1.61-2.02,2.77-1.86Z"/><path class="cls-13" d="m74.19,103.66c.44.06.68.55.57.89-.13.41-.57.57-1,.51-.14-.02-.41.13-.53.2-.17.1-.2.12-.18.26.06.39-.42.73-.82.73-.49,0-.76-.34-.82-.73-.18-1.26,1.61-2.02,2.77-1.86Z"/><path class="cls-16" d="m103.11,69.62c2.03,5.28,7.9,7.81,13.07,9.11,4.68,1.18,6.68-6.06,1.99-7.23-1.68-.42-3.29-.96-4.82-1.76-.82-.43-2.63-1.14-3-2.11-.73-1.89-2.52-3.19-4.61-2.62-1.81.5-3.35,2.71-2.62,4.61h0Z"/><path class="cls-16" d="m93.05,67.49c-.37.98-2.19,1.69-3,2.11-1.54.8-3.14,1.34-4.82,1.76-4.68,1.17-2.7,8.41,1.99,7.23,5.17-1.3,11.04-3.83,13.07-9.11.73-1.89-.8-4.11-2.62-4.61-2.11-.58-3.88.72-4.61,2.62h0Z"/><g><path d="m92.42,136.77c2.98-1.19,6.05-2.12,9.16-2.79,3.53-.76,7.51-1.07,10.4,1.23"/><path d="m93.42,140.38c4.69-1.8,12.01-5.07,16.67-1.94,4.02,2.7,7.78-3.8,3.79-6.48-6.67-4.48-15.63-1.44-22.45,1.18-4.46,1.71-2.52,8.97,1.99,7.23h0Z"/></g></g><g><path class="cls-26" d="m36.26,301.98l8.05-17.38,11.64-13.11,22.33-6.3,29.06-2.45,36.85,5.83,16.59,8.9,12.76,16.74v6.9l-8.76,2.25-2.17-12.94-12.61-9.71-18.14-3.24h-13.79l-10.9,6.78s-.13,11.99-1.93,6.9l-1.8-5.09s-.92-1.94-8.95-6.56l-8.02-4.61s-6.3-1.94-13.09.49c-6.79,2.43.97-1.94-6.79,2.43l-7.76,4.37-11.26,12.79-2.22,12.33-9.12-5.31Z"/><path class="cls-8" d="m104.91,288.22l-8.83-8.72-14.9-5.33-18.68,5.33-10.23,8.72-6.89,10.27v8.8l-10.9-3.99-9.57,2.67-6.45,10.14,1.49,11.06,7.4,9.76,12.17,4.94s9.78-9.6,8.73-5.75l-1.05,3.84,1.45,8.26,2.48,8.43,5.11,7.25,12.77,5.69,13.12,2.13,32.4,3.56,23.6-4.9,20.59-8.56,6.79-11.66,1.92-13.23,8.01,2.15,11.12-6.62,4.89-11.93-2.37-13.53-12.52-5.03h-10.45l-1.56-5.24-6.67-11.72-16.61-7.55-15.93-1.3-13.05,3.33-7.41,8.72Z"/><path d="m42.45,312.12c-2.31-2.13-5.17-2.68-8.24-2.6-3.64.09-6.27.75-8.68,3.61-2,2.38,1.42,5.83,3.43,3.43,1.55-1.84,2.97-2.14,5.25-2.19,1.69-.04,3.49-.03,4.81,1.18,2.29,2.11,5.73-1.31,3.43-3.43Z"/><path d="m183.4,309.2c-4-2.96-12.75-5.53-16.04-.14-1.61,2.64,2.17,5.68,3.8,3.02,1.76-2.88,7.25-.55,9.23.92,2.51,1.86,5.53-1.94,3.02-3.8Z"/><path class="cls-12" d="m110.7,322.07c.45-.74.19-1.58-.48-2.23-1.29-1.24-3.12-1.59-4.58-1.11-.73.24-1.06,1.24-.66,2.01.42.82,1.28,1.23,2.06.98.04-.01.07-.02.09-.03,0,0,.02,0,.03,0,.08,0,.17-.01.26-.02.03,0,.05,0,.06,0,.02,0,.04,0,.07.02.11.02.22.05.33.07,0,0,0,0,0,0,.02,0,.03.02.06.03.02,0,.09.04.16.07.05.04.18.11.2.13.11.09.22.18.32.28.63.6,1.73.43,2.11-.19Z"/><path class="cls-14" d="m110.74,305.97c-8.88-3.24-14.65,10.06-30.55,13.11-11.42,2.19-19.49-2.54-21.82,1.46-1.47,2.52.23,6.99,2.91,9.71,6.85,6.95,17.05-.67,39.28,0,21.45.64,35.88,5.34,35.88,5.34,7.25,2.36,12.19,4.86,16.97,2.43,6.98-3.55,9.66-15.58,6.3-18.45-4.3-3.67-15.19,10.47-26.18,6.31-2.5-.95-2.34-1.83-16.97-15.05-3.38-3.06-5.09-4.59-5.82-4.86Z"/><path class="cls-15" d="m62.64,288.78c-.4-1.2-2.2-.68-1.8.53.62,1.87-.38,3.59-2.2,3.9-1.18.2-.68,2.12.5,1.92,2.78-.47,4.43-3.53,3.5-6.35Z"/><path class="cls-15" d="m67.62,292.71c-.72.02-1.57-.79-2-1.36-.58-.75-.28-1.85-.33-2.75-.07-1.27-1.94-1.28-1.86,0,.09,1.56-.19,2.9.88,4.17.82.97,2.04,1.97,3.31,1.93,1.2-.04,1.2-2.03,0-1.99Z"/><path class="cls-15" d="m62.92,296.27c-1.21-1.15-2.63-1.01-4.08-.49-1.13.4-.65,2.32.5,1.92.87-.31,1.73-.61,2.45.17.53.58.95,1.43.87,2.25-.13,1.27,1.73,1.26,1.86,0,.15-1.38-.64-2.94-1.6-3.84Z"/><path class="cls-15" d="m68.86,295.29c-3.31-.83-4.57,3.34-3.87,6.1.31,1.24,2.11.71,1.8-.53-.28-1.12-.15-4.08,1.58-3.65,1.17.29,1.66-1.63.5-1.92Z"/><path d="m123.34,321.87c-1.77-2.27-4.8-3.15-7.51-2.52-1.47-3.41-4.81-5.76-8.71-6.06-4.35-.33-8.24,2.1-10.93,5.35-3.26-1.87-7.63-2.46-10.44.42-1.57,1.61-1.8,3.96-.98,5.99.93,2.31,3.01,3.68,5.08,4.88,2.4,1.38,4.57-2.32,2.17-3.71-1.14-.66-5.08-2.97-2.76-4.48,1.79-1.16,4.55.16,5.9,1.37,1.05.94,2.6.78,3.37-.43,1.64-2.57,4.22-4.85,7.39-5.1,2.81-.23,6.08,1.7,6.38,4.7.15,1.48,1.76,2.86,3.23,1.85,3.39-2.31,6.83,1.98,3.75,4.74-2.07,1.84.98,4.87,3.04,3.03,2.8-2.5,3.38-7.01,1.03-10.02Z"/><path d="m131.08,306.53c-3.72,1.84-7.07,4.26-10.02,7.19-1.97,1.97.52,4.94,2.66,3.98,3.02.16,6.01.81,8.79,2.01,1.2.52,2.6.37,3.32-.86.6-1.02.35-2.8-.86-3.33-2.01-.87-4.07-1.54-6.17-2,1.46-1.03,3-1.95,4.64-2.75,2.8-1.38.43-5.62-2.37-4.24Z"/><path d="m92.35,311.82c-5.17-3.51-10.56-6.65-16.15-9.44-2.8-1.39-5.04,2.91-2.25,4.3,3.01,1.5,5.95,3.1,8.83,4.81-2.33.33-4.64.79-6.83,1.06-3.08.39-2.83,5.24.27,4.85,2.39-.3,4.79-.61,7.18-.91,2.2-.28,4.48-.78,6.68-.35.02,0,.03,0,.05,0,2.56,1.67,4.74-2.61,2.2-4.33Z"/><path d="m193.19,311.17c-1.89-5.64-6.73-9.5-12.22-11.39-1.58-.54-3.32-.95-5.1-1.15-1-10.17-7.38-18.78-15.66-24.51-10.07-6.97-22.55-9.38-34.34-11.66-6.24-1.21-12.51-2.18-18.88-2.24-6.82-.07-13.61.65-20.39,1.34-4.45.45-8.97.76-13.42,1.3-.23.1-.5.16-.79.18-.09.04-.19.08-.29.11-.06.01-.12.03-.18.05-.09.02-.18.04-.29.06-.28.14-.62.22-1,.24-3.65,1.7-7.22,1.97-10.93,4.13-2.06,1.2-4.93,2.63-6.86,4.02-1.91,1.38-3.95,2.69-5.69,4.3-3.28,3.05-5.15,7.54-7.28,11.4-1.11,2.01-2.22,4.04-3,6.21-.83,2.32-.8,4.96-2.04,7.12-.09.15-.15.3-.2.44,0,0-.01,0-.02,0,0,.01,0,.03,0,.04,0,.01,0,.03-.01.04-7.16-.31-14.32,3.38-17.65,10.64-5.47,11.96,3.1,26.97,15.16,30.66,3.98,1.22,8.34,1.03,12.16-.49.49,8.17,2.51,16.74,8.74,22.25-.04.03-.08.06-.12.08,1.17.8,2.4,1.54,3.43,2.54.04.04.07.09.11.13.23.11.46.24.65.4.09-.06.18-.12.27-.18,3.81,2.01,8.14,3.12,12.2,4.39,6.1,1.91,12.24,3.66,18.54,4.77,12.13,2.13,24.52,2.15,36.67.15,5.99-.99,11.89-2.48,17.62-4.49,4.55-1.59,9.22-3.41,13.4-5.91.19-.16.4-.3.63-.42.2-.15.4-.29.61-.44.04.03.07.07.11.1,1.47-.69,2.74-1.81,4.01-2.89-.09-.09-.19-.19-.28-.28.26-.28.54-.46.83-.58,5.59-5.67,7.79-13.23,7.61-21.12,1.4.45,2.87.74,4.41.82,7.27.37,12.18-4.06,15.53-10.06,3.33-5.95,6.23-13.26,3.95-20.09Zm-152.31-13.98c.5-2.26,1.46-4.26,2.55-6.28,2.06-3.8,3.93-8.57,7.14-11.55,1.74-1.62,3.83-2.91,5.75-4.29,1.8-1.3,3.58-2.78,5.57-3.77,3.38-1.69,7.26-1.73,10.66-3.36.03,0,.06,0,.09,0,.46,0,.85-.11,1.17-.29,3.34-.36,6.7-.62,10.02-.96,12.13-1.23,24.1-2.45,36.21-.38,10.68,1.83,21.99,3.75,31.8,8.57,9.37,4.61,17.94,12.92,19.14,23.7-1.33.14-2.64.41-3.87.85.42-5.56-4.82-13.36-9.35-17.26-5.7-4.91-9.46-5.51-16.73-6.92-7.64-1.49-15.84-1.68-23.44.14-3.6.86-7.17,2.45-9.68,5.25-1.09,1.22-1.95,2.58-2.68,4.01-2.89-4.33-7.85-7.58-12.34-9.48-6.8-2.88-14.56-3.43-21.64-1.23-13.02,4.05-27.96,14.71-28.67,29.37-.99-.52-2.02-.93-3.06-1.26.67-1.55.96-3.16,1.34-4.86Zm147.94,22.27c-.7,3.45-2.23,6.66-3.97,9.7-1.57,2.77-3.35,5.46-6.46,6.63-3.14,1.18-6.29.8-9.09-.51-.45-.08-.81-.27-1.1-.54-.22-.08-.42-.19-.6-.33-.01,0-.02,0-.04,0-.27-.21-.53-.43-.79-.64l-1.93-1.56c-.07-.06-.15-.1-.22-.15-.06-.09-.11-.19-.16-.29-.01,0-.02.01-.03.02-.73-.75-1.41-1.55-2-2.4-1.79-2.53-5.99-.11-4.19,2.45.84,1.19,1.77,2.32,2.78,3.35.1.17.23.32.39.45.15.12.29.24.44.36.78.72,1.6,1.39,2.47,2,.84,8.48-1.2,17.12-8.56,22.38-8.44,6.04-19.67,9.09-29.73,11-10.57,2.01-21.48,2.32-32.15.99-5.7-.71-11.31-2.01-16.83-3.58-5.38-1.54-11.08-2.96-16.2-5.25-9.55-4.29-11.63-14.84-11.85-24.38.6-.51,1.17-1.06,1.69-1.66,2.04-2.35-1.37-5.8-3.43-3.43-.5.57-1.03,1.08-1.6,1.54-.43.15-.82.41-1.1.78-3.92,2.5-9,2.65-13.33.56-5.56-2.68-9.73-8.34-10.88-14.38-1.13-5.95,1.48-11.96,6.76-15,5.22-3.01,11.91-1.91,16.24,2.14,1.6,1.49,3.76.26,4.13-1.35.11-.3.16-.66.11-1.08-1.8-14.29,12.17-24.34,24.17-28.4,5.81-1.97,12-1.87,17.79.16,5.59,1.96,12.43,6.42,13.34,12.74.37,2.59,3.97,2.01,4.68,0,1.02-2.92,2.07-6.04,4.31-8.26,2.17-2.17,5.22-3.11,8.16-3.7,6.43-1.29,13.3-1.14,19.73.1,6.18,1.2,10.31,2.14,15.59,5.64,5.63,3.73,7.44,11.39,6.52,17.35-.1.11-.2.23-.3.35-1.95,2.43,1.53,5.93,3.47,3.38.11-.09.29-.24.4-.34.34-.18.62-.46.81-.86,4.02-3.26,10.61-2.4,15.02-.34,5.74,2.67,8.82,8.03,7.54,14.36Z"/><g><path d="m139.45,344.66c-7.7-5.57-17.87-5.88-27.36-5.97-13.68-.14-27.35-.28-41.03-.42-.73,0-1.5,0-2.14.36-1.03.59-1.36,1.9-1.55,3.07-.59,3.55-.85,7.16-.76,10.76.02.98.08,1.99.47,2.89,1.06,2.41,4.12,3.21,6.74,3.05,9.71-.58,17.96-9.76,27.59-8.32,5.89.88,10.42,5.57,15.86,7.97,6.85,3.02,15.27,2.12,21.32-2.29,2.26-1.64,4.31-4.03,4.28-6.82-.03-2.79-3.24-5.42-5.65-4.01"/><path d="m141.98,340.34c-13.21-8.91-31.38-6.67-46.49-6.83-4.56-.05-9.12-.09-13.68-.14-4.05-.04-8.52-.66-12.51.02-7.73,1.32-7.69,11.08-7.69,17.25,0,7.08,3.31,12.34,10.9,12.74,6.57.35,12.61-3.19,18.33-5.91,2.84-1.35,6.01-2.79,9.23-2.54,3.75.28,7.05,2.98,10.12,4.89,5.98,3.72,12.41,5.66,19.48,4.68s15.51-4.99,17.69-12.24-3.99-14.72-11.43-12.17c-6.05,2.08-3.45,11.74,2.66,9.64-2.86.98-4.87,3.53-7.99,4.42s-6.18.89-9.15.06c-5.29-1.47-9.42-5.63-14.48-7.69-11.94-4.87-20.07,3.91-31.03,6.49-3.94.93-4.43-.35-4.27-4.18.08-1.98.36-3.86.55-5.83-1.46.23-1.51.32-.15.26.98.01,1.95.02,2.93.03,7.49.08,14.98.15,22.47.23,12.69.13,28.41-2.03,39.49,5.44,5.35,3.61,10.36-5.05,5.05-8.63h0Z"/></g><path d="m94.24,348.49c-.86-1.33-1.63-2.62-2.21-4.1l-4.82,6.33c2.3-.3,4.51-.7,6.67.29,1.77.81,2.27,1.93,4.6,1.67,1.74-.2,3.14-1.3,4.8-1.74.87-.23,2.53.12,3.22-.19,1.01.41,1.31-.03.91-1.33.5-1.65.13-1.9-1.12-.76-5.62,3.15-.58,11.79,5.05,8.63,5.31-2.97,8.36-9.57,2.69-14.09s-11.73-1.99-17.55-.26l3.85.5c-4.09-2.99-8.14-3.38-13.13-2.73-2.84.37-6.16,2.95-4.82,6.33.9,2.29,1.89,4.42,3.22,6.49,3.47,5.4,12.13.39,8.63-5.05h0Z"/><path class="cls-17" d="m96.47,349.01c-3.03.47-3.96,1.32-2.79,2.54,1.88,2.65,5.36,3.37,7.85,1.01.47-.44,1.44-.85.82-1.09.51.19.72,1.09.9,1.55,1,2.53,3.34,4.23,6.15,3.49,2.4-.63,4.49-3.64,3.49-6.15-1.48-3.73-3.5-7.2-7.61-8.43s-7.91.81-10.82,3.56l7.85,1.01c-2.69-3.8-7.01-7.03-11.82-4.62s-5.4,7.94-2.66,12.18c3.48,5.39,12.14.38,8.63-5.05h0Z"/><path class="cls-17" d="m93.65,355.05c6.43,0,6.45-10,0-10s-6.45,10,0,10h0Z"/><path class="cls-17" d="m93.76,355.6c6.43,0,6.45-10,0-10s-6.45,10,0,10h0Z"/><path class="cls-17" d="m95.86,354.95c1.74-.19,3.75-.49,5.47-.15.95.18,2.85,1.2,4.11,1.75,2.47,1.09,5.37.72,6.84-1.79,1.24-2.13.69-5.74-1.79-6.84-2.16-.95-4.41-2.24-6.71-2.8-2.57-.62-5.32-.44-7.92-.16s-5,2.09-5,5c0,2.48,2.3,5.29,5,5h0Z"/><path class="cls-17" d="m107.88,357.05c6.43,0,6.45-10,0-10s-6.45,10,0,10h0Z"/><path class="cls-17" d="m94.54,355.49c6.43,0,6.45-10,0-10s-6.45,10,0,10h0Z"/><path class="cls-17" d="m93.87,355.49c6.43,0,6.45-10,0-10s-6.45,10,0,10h0Z"/><path class="cls-17" d="m93.32,355.94c6.43,0,6.45-10,0-10s-6.45,10,0,10h0Z"/><path class="cls-17" d="m95.87,355.05c6.43,0,6.45-10,0-10s-6.45,10,0,10h0Z"/><path d="m105.15,292.94l-.02,2.83c0,.93-.07,1.87,0,2.8.07,1.02.39,2.02,1.17,2.73.74.67,1.7,1.07,2.7,1.03.78-.04,1.54-.66,1.5-1.5-.03-.78-.66-1.54-1.5-1.5-.07,0-.15,0-.22,0-.17-.01-.15,0,.07.01-.07-.01-.15-.03-.22-.05-.16-.06-.14-.05.05.03-.03,0-.56-.27-.17-.07-.11-.06-.25-.22-.32-.32.28.46-.25-.38.05.08-.09-.13-.11-.36-.13-.51.06.36,0-.2,0-.27,0-.16,0-.32,0-.48.01-1.61.02-3.21.03-4.82,0-.78-.69-1.54-1.5-1.5s-1.49.66-1.5,1.5h0Z"/><path d="m102.51,292.72c.01,1.61.02,3.21.03,4.82,0,.16,0,.32,0,.48,0,.07-.05.62,0,.27-.02.15-.05.38-.13.51.3-.46-.23.38.05-.08-.06.1-.21.26-.32.32.39-.21-.14.07-.17.07.19-.07.2-.08.05-.03-.07.02-.14.04-.22.05.21-.02.24-.03.07-.01-.07,0-.15,0-.22,0-.78-.04-1.54.72-1.5,1.5.04.85.66,1.46,1.5,1.5.99.05,1.92-.35,2.66-.99.81-.7,1.14-1.73,1.22-2.76.07-.9,0-1.82,0-2.72l-.02-2.91c0-.78-.69-1.54-1.5-1.5s-1.51.66-1.5,1.5h0Z"/><path class="cls-26" d="m84.28,304.36c2.99.87,5.55,2.42,7.73,4.65,3.39,3.45,8.69-1.85,5.3-5.3-3.07-3.13-6.84-5.35-11.04-6.57-4.64-1.35-6.63,5.89-1.99,7.23h0Z"/><path class="cls-26" d="m125.8,298.54c-4.2,1.22-7.97,3.45-11.04,6.57-3.38,3.45,1.92,8.76,5.3,5.3,2.18-2.22,4.74-3.78,7.73-4.65,4.63-1.34,2.66-8.58-1.99-7.23h0Z"/></g><g><path class="cls-26" d="m233.17,299.21l8.31-18.24,12.01-13.76,23.06-6.61,30-2.57,38.04,6.12,17.12,9.34,13.17,17.57v7.25l-9.04,2.36-2.23-13.58-13.01-10.19-18.72-3.4h-14.23l-11.25,7.12s-.13,12.58-1.99,7.24l-1.86-5.34s-.95-2.04-9.24-6.88l-8.28-4.84s-6.51-2.04-13.51.51,1-2.04-7.01,2.55l-8.01,4.59-11.62,13.43-2.3,12.94-9.41-5.57Z"/><path class="cls-8" d="m304.29,284.17l-9.11-9.15-15.38-5.6-19.28,5.6-10.56,9.15-7.12,10.78v9.24l-11.25-4.19-9.87,2.8-6.65,10.65,1.54,11.61,7.64,10.24,12.57,5.18s10.09-10.07,9.01-6.04l-1.08,4.04,1.5,8.67,2.56,8.84,5.28,7.61,13.18,5.97,13.54,2.23,33.44,3.74,24.36-5.14,21.25-8.99,7.01-12.23,1.99-13.88,8.26,2.26,11.48-6.94,5.05-12.52-2.45-14.2-12.93-5.28h-10.79l-1.61-5.5-6.88-12.3-17.15-7.92-16.44-1.37-13.47,3.5-7.65,9.15Z"/><path d="m239.56,309.85c-2.38-2.23-5.33-2.81-8.5-2.73-3.75.1-6.48.79-8.96,3.79-2.06,2.49,1.46,6.12,3.54,3.6,1.6-1.93,3.06-2.24,5.42-2.3,1.74-.04,3.61-.03,4.96,1.24,2.37,2.22,5.92-1.38,3.54-3.6Z"/><path d="m385.06,306.79c-4.13-3.1-13.16-5.8-16.56-.15-1.66,2.77,2.24,5.97,3.92,3.17,1.82-3.03,7.48-.57,9.53.96,2.59,1.95,5.71-2.04,3.12-3.99Z"/><path class="cls-12" d="m310.01,320.29c.46-.78.19-1.66-.5-2.34-1.33-1.3-3.22-1.67-4.73-1.17-.75.25-1.1,1.3-.69,2.11.44.86,1.32,1.29,2.12,1.03.04-.02.07-.03.09-.03,0,0,.02,0,.03,0,.09,0,.18-.02.26-.02.03,0,.05,0,.06,0,.02,0,.04.01.07.02.11.02.22.05.34.07,0,0,0,0,0,0,.02.01.03.02.06.03.02,0,.1.05.16.08.06.04.18.12.21.13.12.09.22.19.33.29.65.63,1.79.45,2.17-.2Z"/><path class="cls-14" d="m310.06,303.4c-9.17-3.4-15.13,10.56-31.53,13.76-11.78,2.3-20.12-2.66-22.52,1.53-1.51,2.64.24,7.34,3,10.19,7.07,7.29,17.61-.7,40.54,0,22.15.68,37.04,5.61,37.04,5.61,7.48,2.48,12.58,5.1,17.52,2.55,7.2-3.72,9.98-16.36,6.51-19.37-4.44-3.86-15.68,10.99-27.03,6.63-2.59-.99-2.41-1.92-17.52-15.8-3.49-3.21-5.25-4.82-6.01-5.1Z"/><path d="m323.06,320.09c-1.83-2.38-4.95-3.3-7.75-2.65-1.52-3.58-4.96-6.05-8.99-6.36-4.49-.35-8.5,2.2-11.28,5.61-3.37-1.97-7.88-2.58-10.78.44-1.62,1.69-1.86,4.16-1.02,6.29.96,2.42,3.1,3.86,5.25,5.12,2.48,1.45,4.71-2.44,2.24-3.89-1.18-.69-5.24-3.12-2.85-4.7,1.85-1.22,4.69.17,6.09,1.44,1.09.99,2.69.82,3.48-.46,1.69-2.7,4.35-5.09,7.62-5.36,2.91-.24,6.28,1.79,6.58,4.94.15,1.55,1.82,3,3.34,1.94,3.5-2.42,7.05,2.08,3.87,4.97-2.13,1.94,1.01,5.11,3.14,3.19,2.89-2.63,3.48-7.36,1.06-10.52Z"/><path d="m331.05,303.98c-3.85,1.93-7.3,4.47-10.34,7.55-2.03,2.06.54,5.18,2.74,4.18,3.12.17,6.2.85,9.08,2.11,1.23.54,2.69.39,3.43-.9.61-1.08.37-2.94-.89-3.49-2.08-.92-4.2-1.62-6.37-2.1,1.51-1.08,3.1-2.04,4.79-2.89,2.89-1.45.44-5.9-2.44-4.45Z"/><path d="m291.07,309.53c-5.34-3.68-10.9-6.98-16.67-9.91-2.89-1.46-5.21,3.06-2.32,4.52,3.1,1.57,6.14,3.26,9.12,5.05-2.4.35-4.79.83-7.05,1.12-3.17.41-2.93,5.5.28,5.09,2.47-.32,4.94-.64,7.42-.95,2.27-.29,4.63-.82,6.9-.37.02,0,.04,0,.05,0,2.65,1.75,4.9-2.74,2.27-4.55Z"/><path d="m395.16,308.86c-1.95-5.92-6.95-9.97-12.61-11.95-1.63-.57-3.43-.99-5.27-1.21-1.03-10.67-7.62-19.71-16.17-25.73-10.4-7.32-23.27-9.84-35.45-12.23-6.44-1.26-12.91-2.29-19.49-2.36-7.04-.07-14.05.69-21.05,1.41-4.59.47-9.26.8-13.86,1.36-.24.1-.51.17-.81.18-.09.05-.19.08-.3.11-.07.01-.13.03-.19.05-.1.02-.19.05-.29.06-.29.15-.64.24-1.03.25-3.77,1.78-7.45,2.07-11.28,4.33-2.13,1.26-5.09,2.76-7.09,4.22-1.98,1.45-4.08,2.82-5.87,4.51-3.39,3.2-5.32,7.91-7.51,11.97-1.14,2.11-2.29,4.24-3.1,6.51-.86,2.44-.83,5.2-2.1,7.47-.09.16-.16.31-.21.47,0,0-.01,0-.02,0,0,.02,0,.03,0,.05,0,.01,0,.03-.01.04-7.39-.32-14.78,3.55-18.21,11.17-5.65,12.55,3.2,28.31,15.65,32.18,4.11,1.28,8.61,1.08,12.55-.51.51,8.57,2.59,17.57,9.02,23.36-.04.03-.08.06-.12.09,1.21.84,2.48,1.62,3.54,2.66.04.04.07.09.11.14.24.12.47.25.67.41.09-.06.19-.13.28-.19,3.94,2.11,8.4,3.28,12.6,4.61,6.29,2,12.64,3.84,19.14,5.01,12.52,2.24,25.31,2.25,37.85.16,6.18-1.03,12.28-2.61,18.19-4.71,4.7-1.67,9.52-3.58,13.83-6.2.19-.17.41-.32.65-.44.21-.15.42-.31.63-.46.04.04.07.07.11.11,1.51-.73,2.83-1.9,4.14-3.03-.1-.1-.19-.2-.29-.29.27-.29.56-.48.86-.61,5.77-5.95,8.04-13.88,7.86-22.17,1.44.48,2.96.78,4.55.86,7.5.39,12.57-4.27,16.03-10.56,3.44-6.24,6.43-13.91,4.07-21.09Zm-157.22-14.67c.52-2.37,1.51-4.47,2.64-6.6,2.12-3.99,4.06-8.99,7.37-12.12,1.79-1.7,3.96-3.05,5.94-4.51,1.86-1.36,3.69-2.92,5.75-3.96,3.49-1.77,7.49-1.82,11.01-3.53.03,0,.06,0,.09,0,.47,0,.88-.11,1.21-.3,3.45-.38,6.92-.65,10.35-1.01,12.52-1.29,24.88-2.57,37.38-.4,11.03,1.92,22.7,3.94,32.83,9,9.67,4.83,18.52,13.56,19.76,24.88-1.38.15-2.72.43-4,.89.43-5.84-4.98-14.03-9.65-18.12-5.88-5.15-9.77-5.78-17.27-7.26-7.89-1.56-16.35-1.77-24.2.15-3.71.91-7.4,2.57-9.99,5.51-1.13,1.28-2.01,2.7-2.76,4.21-2.98-4.55-8.11-7.96-12.74-9.95-7.02-3.02-15.03-3.6-22.34-1.29-13.44,4.25-28.86,15.44-29.6,30.82-1.02-.54-2.08-.98-3.16-1.33.7-1.63.99-3.32,1.38-5.1Zm152.71,23.38c-.72,3.63-2.31,6.99-4.09,10.18-1.63,2.9-3.46,5.73-6.67,6.96-3.24,1.24-6.49.84-9.38-.53-.46-.09-.84-.29-1.13-.56-.23-.09-.44-.2-.62-.35-.01,0-.03,0-.04,0-.28-.22-.54-.45-.81-.67l-1.99-1.64c-.07-.06-.15-.11-.23-.16-.06-.1-.12-.2-.16-.3-.01,0-.02.01-.03.02-.76-.78-1.45-1.63-2.07-2.51-1.84-2.66-6.19-.12-4.32,2.57.87,1.25,1.83,2.43,2.87,3.52.11.17.24.33.4.47.15.12.3.25.45.37.8.76,1.65,1.46,2.55,2.1.87,8.9-1.24,17.96-8.83,23.49-8.71,6.34-20.31,9.54-30.69,11.55-10.91,2.11-22.17,2.43-33.19,1.04-5.88-.75-11.67-2.1-17.37-3.76-5.55-1.61-11.44-3.1-16.72-5.52-9.86-4.5-12.01-15.57-12.24-25.59.62-.53,1.2-1.11,1.74-1.75,2.11-2.46-1.42-6.08-3.54-3.6-.51.6-1.06,1.13-1.65,1.61-.45.15-.85.43-1.14.82-4.04,2.63-9.29,2.79-13.76.59-5.74-2.82-10.04-8.75-11.23-15.09-1.17-6.25,1.53-12.55,6.97-15.74,5.39-3.16,12.29-2.01,16.76,2.25,1.65,1.57,3.88.27,4.26-1.42.12-.32.16-.69.11-1.13-1.85-15,12.57-25.54,24.95-29.8,6-2.06,12.39-1.96,18.36.17,5.77,2.06,12.83,6.73,13.78,13.38.39,2.72,4.1,2.11,4.83,0,1.05-3.06,2.13-6.33,4.44-8.67,2.24-2.27,5.39-3.26,8.42-3.88,6.64-1.36,13.73-1.2,20.37.11,6.38,1.26,10.64,2.24,16.09,5.91,5.81,3.91,7.68,11.96,6.73,18.21-.1.12-.21.24-.31.37-2.01,2.56,1.58,6.22,3.59,3.54.11-.1.3-.25.41-.35.35-.19.64-.48.83-.9,4.14-3.42,10.95-2.51,15.51-.36,5.93,2.8,9.1,8.43,7.78,15.07Z"/><g><path d="m285.76,338.62c-1.97-.31-3.98-.53-5.95-.2s-3.91,1.26-5.1,2.89c-.99,1.34-1.39,3.05-1.49,4.73-.31,4.97,2.04,10.07,6.1,12.84,4.06,2.76,9.73,2.97,13.87.32.96-.62,1.84-1.37,2.82-1.96,3.26-1.96,7.36-1.91,11.02-.94,3.66.97,7.05,2.77,10.57,4.2,2.13.86,4.38,1.6,6.66,1.4,2.55-.23,4.92-1.65,6.55-3.66,1.63-2,2.55-4.55,2.86-7.13.17-1.43.16-2.91-.28-4.28-.79-2.48-2.88-4.35-5.22-5.4-2.34-1.06-4.91-1.4-7.46-1.67-12.5-1.3-25.11-.92-37.67-.54"/><path d="m287.09,333.8c-7.07-.99-15.25-.14-18,7.63-2.45,6.92.19,15.23,5.53,20.08,5.27,4.78,13.45,5.94,19.81,2.71,4.48-2.27,6.71-4.43,12.05-2.87,3.95,1.15,7.49,3.35,11.41,4.58,7.68,2.41,15.19-.49,18.86-7.8,3.16-6.29,2.74-14.18-2.83-18.92-5.94-5.06-15.27-4.81-22.6-5.14-9.42-.42-18.85-.14-28.27.15-6.42.19-6.45,10.2,0,10,10.99-.33,22-.67,32.97.13,3.39.25,10.91-.11,12.55,3.81.88,2.11-.35,5.42-1.77,6.98-2.28,2.5-5.06,1.64-7.87.54-8.3-3.25-16.73-7.68-25.44-2.76-4.31,2.44-8.62,5.23-12.85.5-1.37-1.53-2.39-3.82-2.43-5.89-.07-4.22,2.87-4.55,6.23-4.08,6.29.88,9.01-8.75,2.66-9.64h0Z"/></g><g><path class="cls-17" d="m300.19,354.81c-2.88.4-3.75,1.2-2.6,2.41,1.85,2.65,5.39,3.38,7.85,1.01,1.38-1.33,1.23-1.5,2.04.59,2.31,5.93,11.98,3.35,9.64-2.66-1.49-3.82-3.54-7.41-7.74-8.68s-8.07.84-11.01,3.67l7.85,1.01c-2.7-3.88-7.11-7.22-12-4.75s-5.41,8.11-2.66,12.43c3.44,5.42,12.1.41,8.63-5.05h0Z"/><path class="cls-17" d="m297.42,360.78c6.43,0,6.45-10,0-10s-6.45,10,0,10h0Z"/><path class="cls-17" d="m297.53,361.36c6.43,0,6.45-10,0-10s-6.45,10,0,10h0Z"/><path class="cls-17" d="m299.7,360.67c1.79-.2,3.91-.53,5.67-.16,1.15.24,2.97,1.27,4.3,1.87,2.46,1.11,5.38.71,6.84-1.79,1.25-2.14.68-5.73-1.79-6.84-2.22-1-4.52-2.33-6.88-2.91-2.64-.65-5.46-.46-8.13-.16s-5,2.09-5,5c0,2.47,2.3,5.3,5,5h0Z"/><path class="cls-17" d="m312.11,362.88c6.43,0,6.45-10,0-10s-6.45,10,0,10h0Z"/><path class="cls-17" d="m298.34,361.25c6.43,0,6.45-10,0-10s-6.45,10,0,10h0Z"/><path class="cls-17" d="m297.65,361.25c6.43,0,6.45-10,0-10s-6.45,10,0,10h0Z"/><path class="cls-17" d="m297.07,361.71c6.43,0,6.45-10,0-10s-6.45,10,0,10h0Z"/><path class="cls-17" d="m299.71,360.78c6.43,0,6.45-10,0-10s-6.45,10,0,10h0Z"/></g><g><path class="cls-20" d="m337,318.7c1.96-.81,5.18-3.04,7.17-2.16s1.5,4.78,1.47,6.55c-.09,5.75-.44,11.5-.84,17.24-.45,6.42,9.55,6.39,10,0,.36-5.1.65-10.21.79-15.32.12-4.05.31-8.38-1.58-12.11-4.28-8.44-12.37-6.88-19.67-3.85-5.86,2.43-3.29,12.11,2.66,9.64h0Z"/><path class="cls-20" d="m335.49,320.02c.76-.09,2.89-.68,3.63-.16,1.13.8.66,3.84.64,5.02-.05,3.64-.31,7.29-.81,10.89-.86,6.29,8.78,9.02,9.64,2.66.89-6.51,2.44-14.53.37-20.94s-7.49-8.22-13.48-7.48c-6.3.78-6.38,10.79,0,10h0Z"/></g><g><path class="cls-20" d="m273.41,308.62c-7.3-3.03-15.39-4.59-19.67,3.85-1.89,3.72-1.7,8.06-1.58,12.11.15,5.11.43,10.22.79,15.32.45,6.38,10.45,6.43,10,0-.4-5.73-.76-11.49-.84-17.24-.02-1.61-.48-5.07.88-6.29,1.72-1.55,5.98,1.16,7.77,1.9,5.94,2.46,8.53-7.21,2.66-9.64h0Z"/><path class="cls-20" d="m272.27,309.58c-5.99-.74-11.49,1.34-13.48,7.48s-.52,14.4.37,20.94,10.5,3.64,9.64-2.66c-.49-3.61-.75-7.26-.81-10.89-.02-1.25-.41-3.59.44-4.6s2.61-.42,3.83-.27c6.37.79,6.31-9.22,0-10h0Z"/></g><path class="cls-24" d="m337.03,321.13c.86-.28,3.58-1.54,4.45-.88.82.63.48,3.13.5,4.06.09,3.75.15,7.51.23,11.26.13,6.43,10.13,6.45,10,0-.13-6.11,1.15-14.72-2.04-20.2-3.43-5.9-10.06-5.76-15.8-3.89-6.09,1.98-3.49,11.64,2.66,9.64h0Z"/><path class="cls-24" d="m272.13,310.52c-6.14-.33-12.4-1.08-15.94,5.07-3.3,5.74-2.08,13.7-1.68,19.97s10.41,6.44,10,0c-.25-3.94-.82-8.23-.34-12.16.27-2.24.27-2.93,2.36-3.18,1.76-.21,3.84.21,5.61.3,6.43.35,6.41-9.66,0-10h0Z"/><path class="cls-12" d="m342.78,317.6c1.05.03-.76-.25-.2-.06.04.01.79.19.78.22,0,.03-1.11-.57-.16-.01.1.05.19.11.28.17.31.21.19.11-.35-.29.05.13.37.35.48.45.72.67-.3-.58-.07-.11.02.05.45.68.41.72.02-.02-.38-1.15-.07.05.64,2.54,3.62,4.31,6.15,3.49s4.17-3.43,3.49-6.15c-1.23-4.92-5.72-8.34-10.74-8.49-2.62-.08-5.12,2.36-5,5,.12,2.78,2.2,4.92,5,5h0Z"/><path class="cls-12" d="m264.74,307.43c-5.01.15-9.5,3.57-10.74,8.49-.64,2.53.82,5.54,3.49,6.15s5.47-.78,6.15-3.49c.03-.14.39-1.05.05-.35s.12-.13.19-.29c.37-.77-.49.45-.09.09.11-.09.56-.48.59-.58-.06.21-.84.54-.22.2.09-.05,1.03-.51.28-.19s.16,0,.33-.06c.91-.32-1.08.05-.04.02,2.61-.08,5.12-2.24,5-5s-2.2-5.08-5-5h0Z"/><path class="cls-26" d="m311.03,297.27c5.02,4.69,11.9,6.48,18.53,4.57,4.63-1.34,2.66-8.58-1.99-7.23-4.05,1.17-8.14.26-11.24-2.64-3.52-3.3-8.84,2-5.3,5.3h0Z"/><path class="cls-26" d="m293.94,290.24c-5.53,2.93-12.21,3.55-18.34,2.56-4.72-.77-6.75,6.46-1.99,7.23,8.21,1.33,16.68.63,24.12-3.31,4.27-2.26.48-8.74-3.79-6.48h0Z"/></g><rect class="cls-21" y="161" width="399" height="101"/><g><path d="m31.64,231.79l-5.22,22.32h-6.71l17.08-70.97h7.83l17.16,70.97h-6.94l-5.37-22.32h-17.83Zm16.49-7.16l-4.92-20.43c-1.12-4.63-1.87-8.85-2.61-12.95h-.15c-.75,4.21-1.57,8.53-2.54,12.85l-4.92,20.53h15.14Z"/><path d="m69.17,254.12v-70.97h7.09l16.11,35.91c3.73,8.32,6.64,15.79,9.03,23.06l.15-.11c-.6-9.48-.75-18.11-.75-29.17v-29.69h6.12v70.97h-6.56l-15.96-36.01c-3.51-7.9-6.86-16.01-9.4-23.69l-.22.11c.37,8.95.52,17.48.52,29.27v30.33h-6.12Z"/><path d="m124.75,183.15v70.97h-6.49v-70.97h6.49Z"/><path d="m178.46,222.95c-.37-9.9-.82-21.8-.75-30.64h-.22c-1.72,8.32-3.8,17.16-6.34,26.96l-8.88,34.43h-4.92l-8.13-33.8c-2.39-10-4.4-19.16-5.82-27.59h-.15c-.15,8.85-.52,20.74-.97,31.38l-1.34,30.43h-6.19l3.51-70.97h8.28l8.58,34.33c2.09,8.74,3.8,16.53,5.07,23.9h.22c1.27-7.16,3.06-14.95,5.3-23.9l8.95-34.33h8.28l3.13,70.97h-6.34l-1.27-31.17Z"/><path d="m203.45,231.79l-5.22,22.32h-6.71l17.08-70.97h7.83l17.16,70.97h-6.94l-5.37-22.32h-17.83Zm16.49-7.16l-4.92-20.43c-1.12-4.63-1.87-8.85-2.61-12.95h-.15c-.75,4.21-1.57,8.53-2.54,12.85l-4.92,20.53h15.14Z"/><path d="m244.78,190.94h-15.29v-7.79h37.23v7.79h-15.37v63.18h-6.56v-63.18Z"/><path d="m278.8,183.15v70.97h-6.49v-70.97h6.49Z"/><path d="m333.11,217.89c0,24.43-10.52,37.38-23.35,37.38s-22.6-14.53-22.6-36.01c0-22.54,9.92-37.28,23.35-37.28s22.6,14.85,22.6,35.91Zm-39.02,1.16c0,15.16,5.82,28.75,16.04,28.75s16.11-13.37,16.11-29.48c0-14.11-5.22-28.85-16.04-28.85s-16.11,14-16.11,29.59Z"/><path d="m341.55,254.12v-70.97h7.09l16.11,35.91c3.73,8.32,6.64,15.79,9.03,23.06l.15-.11c-.6-9.48-.75-18.11-.75-29.17v-29.69h6.12v70.97h-6.56l-15.96-36.01c-3.51-7.9-6.86-16.01-9.4-23.69l-.22.11c.37,8.95.52,17.48.52,29.27v30.33h-6.12Z"/></g></g></svg>